<?xml version="1.0" encoding="UTF-8" standalone="no"?>
<svg
   width="900px"
   height="900px"
   viewBox="0 0 900 900"
   version="1.1"
   xml:space="preserve"
   id="SVGRoot"
   xmlns="http://www.w3.org/2000/svg"
   xmlns:svg="http://www.w3.org/2000/svg"><defs
   id="defs48" />

<style
   type="text/css"
   id="style1">
g.prefab path {
  vector-effect:non-scaling-stroke;
  -inkscape-stroke:hairline;
  fill: none;
  fill-opacity: 1;
  stroke-opacity: 1;
  stroke: #00349c;
}
</style>

<g
   id="layer1" /><g
   id="layer3"
   style="display:none;fill:none;stroke:#1a1a1a"><path
     style="fill:none;stroke:#1a1a1a"
     d="m 345.03563,12.446666 -21.0271,41.080181 a 49.814045,49.814045 103.5616 0 0 -5.47126,22.681993 l -0.0196,64.86454 a 5244.6848,5244.6848 90.148438 0 1 -0.0622,23.99986 l -0.35048,71.83532 a 28.631964,28.631964 67.54039 0 0 8.45612,20.45566 L 443.69162,373.6849 a 11.841011,11.841011 179.41916 0 0 16.85615,-0.17088 L 576.14162,253.968 a 29.679801,29.679801 112.02284 0 0 8.34329,-20.62668 l 0.0241,-160.554048 a 49.452757,49.452757 76.369073 0 0 -5.4965,-22.666244 L 559.49172,12.252271 A 19.666933,19.666933 31.339623 0 0 541.99342,1.5965624 L 362.50326,1.7541373 A 19.642255,19.642255 148.52778 0 0 345.03563,12.446666 Z"
     id="path67-5"
     transform="translate(-61.604645,274.90344)" /></g><g
   id="g63"
   transform="matrix(1.7644086,0,0,1.7573142,2.8064557,103.53955)"
   style="display:none"><g
     id="g1">
	<g
   id="games">
		<path
   d="M 331.5,140.25 V 0 h -153 v 140.25 l 76.5,76.5 z M 140.25,178.5 H 0 v 153 H 140.25 L 216.75,255 Z M 178.5,369.75 V 510 h 153 V 369.75 L 255,293.25 Z m 191.25,-191.25 -76.5,76.5 76.5,76.5 H 510 v -153 z"
   id="path1" />
	</g>
</g><g
     id="g2">
</g><g
     id="g3">
</g><g
     id="g4">
</g><g
     id="g5">
</g><g
     id="g6">
</g><g
     id="g7">
</g><g
     id="g8">
</g><g
     id="g9">
</g><g
     id="g10">
</g><g
     id="g11">
</g><g
     id="g12">
</g><g
     id="g13">
</g><g
     id="g14">
</g><g
     id="g15">
</g><g
     id="g16">
</g></g><g
   id="layer2"
   style="display:none"><path
     style="fill:none;stroke:#1a1a1a"
     d="M 453.7848,384.38323 C 326.57163,511.60112 326.57163,511.60112 326.57163,511.60112"
     id="path68" /><path
     style="fill:none;stroke:#1a1a1a"
     d="M 320.29698,252.29514 C 193.08381,379.51303 193.08381,379.51303 193.08381,379.51303"
     id="path68-7" /><g
     id="layer2-0"
     transform="rotate(90,454.57379,511.04299)"><path
       style="fill:none;stroke:#1a1a1a"
       d="M 453.7848,384.38323 C 326.57163,511.60112 326.57163,511.60112 326.57163,511.60112"
       id="path68-2" /><path
       style="fill:none;stroke:#1a1a1a"
       d="M 320.29698,252.29514 C 193.08381,379.51303 193.08381,379.51303 193.08381,379.51303"
       id="path68-7-3" /></g><path
     style="fill:none;stroke:#1a1a1a"
     d="m 379.35933,314.58548 -82.90314,82.90001"
     id="path69" /><path
     style="display:inline;fill:none;stroke:#1a1a1a"
     d="m 526.61539,310.37035 82.90001,82.90314"
     id="path69-1" /><path
     style="display:inline;fill:none;stroke:#1a1a1a"
     d="m 587.64655,514.05336 -82.90314,82.90001"
     id="path69-3" /><path
     style="display:inline;fill:none;stroke:#1a1a1a"
     d="M 389.83196,608.36701 306.93195,525.46387"
     id="path69-4" /></g><g
   id="layer4"
   transform="matrix(0.95715277,0,0,0.97454818,15.849033,-4.665071)"
   style="fill:#f9f9f9"><g
     id="layer5"
     style="fill:#f9f9f9"><path
       style="fill:#f9f9f9;stroke:#1a1a1a"
       d="m 345.03563,12.446666 -21.0271,41.080181 a 49.814045,49.814045 103.5616 0 0 -5.47126,22.681993 l -0.0196,64.86454 a 5244.6848,5244.6848 90.148438 0 1 -0.0622,23.99986 l -0.35048,71.83532 a 28.631964,28.631964 67.54039 0 0 8.45612,20.45566 L 443.69162,373.6849 a 11.841011,11.841011 179.41916 0 0 16.85615,-0.17088 L 576.14162,253.968 a 29.679801,29.679801 112.02284 0 0 8.34329,-20.62668 l 0.0241,-160.554048 a 49.452757,49.452757 76.369073 0 0 -5.4965,-22.666244 L 559.49172,12.252271 A 19.666933,19.666933 31.339623 0 0 541.99342,1.5965624 L 362.50326,1.7541373 A 19.642255,19.642255 148.52778 0 0 345.03563,12.446666 Z"
       id="path67-6"
       transform="rotate(-90,452.73178,466.52631)" /><path
       style="fill:#f9f9f9;stroke:#1a1a1a"
       d="m 345.03563,12.446666 -21.0271,41.080181 a 49.814045,49.814045 103.5616 0 0 -5.47126,22.681993 l -0.0196,64.86454 a 5244.6848,5244.6848 90.148438 0 1 -0.0622,23.99986 l -0.35048,71.83532 a 28.631964,28.631964 67.54039 0 0 8.45612,20.45566 L 443.69162,373.6849 a 11.841011,11.841011 179.41916 0 0 16.85615,-0.17088 L 576.14162,253.968 a 29.679801,29.679801 112.02284 0 0 8.34329,-20.62668 l 0.0241,-160.554048 a 49.452757,49.452757 76.369073 0 0 -5.4965,-22.666244 L 559.49172,12.252271 A 19.666933,19.666933 31.339623 0 0 541.99342,1.5965624 L 362.50326,1.7541373 A 19.642255,19.642255 148.52778 0 0 345.03563,12.446666 Z"
       id="path67-6-2"
       transform="rotate(90,452.58952,466.42)" /></g><g
     id="layer6"
     style="fill:#f9f9f9"><path
       style="fill:#f9f9f9;stroke:#1a1a1a"
       d="m 345.03563,12.446666 -21.0271,41.080181 a 49.814045,49.814045 103.5616 0 0 -5.47126,22.681993 l -0.0196,64.86454 a 5244.6848,5244.6848 90.148438 0 1 -0.0622,23.99986 l -0.35048,71.83532 a 28.631964,28.631964 67.54039 0 0 8.45612,20.45566 L 443.69162,373.6849 a 11.841011,11.841011 179.41916 0 0 16.85615,-0.17088 L 576.14162,253.968 a 29.679801,29.679801 112.02284 0 0 8.34329,-20.62668 l 0.0241,-160.554048 a 49.452757,49.452757 76.369073 0 0 -5.4965,-22.666244 L 559.49172,12.252271 A 19.666933,19.666933 31.339623 0 0 541.99342,1.5965624 L 362.50326,1.7541373 A 19.642255,19.642255 148.52778 0 0 345.03563,12.446666 Z"
       id="path67-6-7"
       transform="rotate(180,451.8806,463.68353)" /><path
       style="fill:#f9f9f9;stroke:#1a1a1a"
       d="m 345.03563,12.446666 -21.0271,41.080181 a 49.814045,49.814045 103.5616 0 0 -5.47126,22.681993 l -0.0196,64.86454 a 5244.6848,5244.6848 90.148438 0 1 -0.0622,23.99986 l -0.35048,71.83532 a 28.631964,28.631964 67.54039 0 0 8.45612,20.45566 L 443.69162,373.6849 a 11.841011,11.841011 179.41916 0 0 16.85615,-0.17088 L 576.14162,253.968 a 29.679801,29.679801 112.02284 0 0 8.34329,-20.62668 l 0.0241,-160.554048 a 49.452757,49.452757 76.369073 0 0 -5.4965,-22.666244 L 559.49172,12.252271 A 19.666933,19.666933 31.339623 0 0 541.99342,1.5965624 L 362.50326,1.7541373 A 19.642255,19.642255 148.52778 0 0 345.03563,12.446666 Z"
       id="path67"
       transform="translate(1.2308347,6.4281847)" /></g></g></svg>
