<?xml version="1.0" encoding="UTF-8" standalone="no"?>
<!-- Generator: Adobe Illustrator 15.1.0, SVG Export Plug-In  -->

<svg
   version="1.1"
   x="0px"
   y="0px"
   width="799.97614"
   height="229.966"
   viewBox="-48.423 -13.517 799.97614 229.966"
   enable-background="new -48.423 -13.517 800 230"
   xml:space="preserve"
   id="svg1"
   xmlns="http://www.w3.org/2000/svg"
   xmlns:svg="http://www.w3.org/2000/svg">
<defs
   id="defs1"><style
     type="text/css"
     id="style6">
   
    .fil0 {fill:#02ABCA}
    .fil1 {fill:#8B8B8B;fill-rule:nonzero}
   
  </style></defs>

<style
   id="style1">.st0{fill:#a09d9e}.st1{fill:#231f20}.st2{fill:#cf181f}</style><style
   id="style1-6">.st0{fill:#a09d9e}.st1{fill:#231f20}.st2{fill:#cf181f}</style><g
   id="g1"
   transform="matrix(4.1384919,0,0,2.456582,150.21995,-20.836035)"><g
     id="g289"><path
       fill="#000000"
       d="M 68,5 H 32 c -4.971,0 -9,4.029 -9,9 v 72 c 0,4.971 4.029,9 9,9 h 36 c 4.971,0 9,-4.029 9,-9 V 14 C 77,9.029 72.971,5 68,5 Z m 7.2,81 c 0,3.97 -3.23,7.2 -7.2,7.2 H 32 c -3.97,0 -7.2,-3.23 -7.2,-7.2 V 14 c 0,-3.97 3.23,-7.2 7.2,-7.2 h 36 c 3.97,0 7.2,3.23 7.2,7.2 z"
       id="path281" /><path
       fill="#000000"
       d="m 27.5,81.5 h 45 V 14 h -45 z M 29.3,15.8 H 70.7 V 79.7 H 29.3 Z"
       id="path283" /><rect
       x="45.5"
       y="9.5"
       fill="#000000"
       width="9"
       height="1.8"
       id="rect285" /><path
       fill="#000000"
       d="m 50,82.85 c -2.485,0 -4.5,2.015 -4.5,4.5 0,2.485 2.015,4.5 4.5,4.5 2.485,0 4.5,-2.015 4.5,-4.5 0,-2.485 -2.015,-4.5 -4.5,-4.5 z m 0,7.2 c -1.489,0 -2.7,-1.211 -2.7,-2.7 0,-1.489 1.211,-2.7 2.7,-2.7 1.489,0 2.7,1.211 2.7,2.7 0,1.489 -1.211,2.7 -2.7,2.7 z"
       id="path287" /></g><path
     id="text291"
     d="m 66.742188,112.30078 c 0.07354,0.007 0.147128,0.0144 0.220703,0.0215 l 0.0078,-0.0215 z m -66.26171925,2.00977 c 0.006465,0.01 0.0150677,0.0174 0.0214844,0.0273 0.0188509,0.003 0.0377688,0.005 0.0566406,0.008 -0.0252442,-0.0129 -0.0536096,-0.0214 -0.078125,-0.0351 z" /><path
     id="text293"
     d="m 23.681641,119.47266 c 0.01231,0.0662 0.01106,0.0793 0.01953,0.13672 l 0.08008,0.13476 c 0.0055,-0.0569 0.0063,-0.009 0.01563,-0.12695 -0.02602,-0.0484 -0.07689,-0.0964 -0.115234,-0.14453 z M 5.71875,119.99219 c -0.2278308,0.0441 -0.453527,0.086 -0.6738281,0.11719 0.024147,9.5e-4 0.045583,0.006 0.070312,0.006 0.2275796,0 0.4279695,-0.0453 0.6035156,-0.12304 z" /></g></svg>
