<?xml version="1.0" encoding="UTF-8" standalone="no"?>
<svg
   version="1.1"
   x="0px"
   y="0px"
   viewBox="0 0 100 125"
   enable-background="new 0 0 100 100"
   xml:space="preserve"
   id="svg295"
   sodipodi:docname="noun-mobile-1086535.svg"
   inkscape:version="1.2.2 (b0a8486541, 2022-12-01)"
   xmlns:inkscape="http://www.inkscape.org/namespaces/inkscape"
   xmlns:sodipodi="http://sodipodi.sourceforge.net/DTD/sodipodi-0.dtd"
   xmlns="http://www.w3.org/2000/svg"
   xmlns:svg="http://www.w3.org/2000/svg"><defs
     id="defs299" /><sodipodi:namedview
     id="namedview297"
     pagecolor="#ffffff"
     bordercolor="#000000"
     borderopacity="0.25"
     inkscape:showpageshadow="2"
     inkscape:pageopacity="0.0"
     inkscape:pagecheckerboard="0"
     inkscape:deskcolor="#d1d1d1"
     showgrid="false"
     inkscape:zoom="3.776"
     inkscape:cx="36.811441"
     inkscape:cy="89.645127"
     inkscape:window-width="1440"
     inkscape:window-height="876"
     inkscape:window-x="0"
     inkscape:window-y="0"
     inkscape:window-maximized="1"
     inkscape:current-layer="svg295" /><g
     id="g289"><path
       fill="#000000"
       d="M68,5H32c-4.971,0-9,4.029-9,9v72c0,4.971,4.029,9,9,9h36c4.971,0,9-4.029,9-9V14C77,9.029,72.971,5,68,5z    M75.2,86c0,3.97-3.23,7.2-7.2,7.2H32c-3.97,0-7.2-3.23-7.2-7.2V14c0-3.97,3.23-7.2,7.2-7.2h36c3.97,0,7.2,3.23,7.2,7.2V86z"
       id="path281" /><path
       fill="#000000"
       d="M27.5,81.5h45V14h-45V81.5z M29.3,15.8h41.4v63.9H29.3V15.8z"
       id="path283" /><rect
       x="45.5"
       y="9.5"
       fill="#000000"
       width="9"
       height="1.8"
       id="rect285" /><path
       fill="#000000"
       d="M50,82.85c-2.485,0-4.5,2.015-4.5,4.5c0,2.485,2.015,4.5,4.5,4.5c2.485,0,4.5-2.015,4.5-4.5   C54.5,84.865,52.485,82.85,50,82.85z M50,90.05c-1.489,0-2.7-1.211-2.7-2.7c0-1.489,1.211-2.7,2.7-2.7s2.7,1.211,2.7,2.7   C52.7,88.839,51.489,90.05,50,90.05z"
       id="path287" /></g><path
     id="text291"
     d="m 66.742188,112.30078 c 0.07354,0.007 0.147128,0.0144 0.220703,0.0215 l 0.0078,-0.0215 z m -66.26171925,2.00977 c 0.006465,0.01 0.0150677,0.0174 0.0214844,0.0273 0.0188509,0.003 0.0377688,0.005 0.0566406,0.008 -0.0252442,-0.0129 -0.0536096,-0.0214 -0.078125,-0.0351 z" /><path
     id="text293"
     d="m 23.681641,119.47266 c 0.01231,0.0662 0.01106,0.0793 0.01953,0.13672 l 0.08008,0.13476 c 0.0055,-0.0569 0.0063,-0.009 0.01563,-0.12695 -0.02602,-0.0484 -0.07689,-0.0964 -0.115234,-0.14453 z M 5.71875,119.99219 c -0.2278308,0.0441 -0.453527,0.086 -0.6738281,0.11719 0.024147,9.5e-4 0.045583,0.006 0.070312,0.006 0.2275796,0 0.4279695,-0.0453 0.6035156,-0.12304 z" /></svg>
