<?xml version="1.0" encoding="UTF-8" standalone="no"?>
<!-- Generator: Adobe Illustrator 15.1.0, SVG Export Plug-In  -->

<svg
   version="1.1"
   x="0px"
   y="0px"
   width="800"
   height="230"
   viewBox="-48.423 -13.517 800 230"
   enable-background="new -48.423 -13.517 800 230"
   xml:space="preserve"
   id="svg1"
   xmlns="http://www.w3.org/2000/svg"
   xmlns:svg="http://www.w3.org/2000/svg">
<defs
   id="defs1"><style
     type="text/css"
     id="style6">
   
    .fil0 {fill:#02ABCA}
    .fil1 {fill:#8B8B8B;fill-rule:nonzero}
   
  </style></defs>
<path
   fill-rule="evenodd"
   clip-rule="evenodd"
   d="m 715.752,114.432 v -6.248 h -0.04 l -2.388,6.248 h -1.086 l -2.389,-6.248 h -0.037 v 6.248 h -1.457 v -7.996 h 2.252 l 2.192,5.667 2.176,-5.667 h 2.23 v 7.996 z m -11.472,0 h -1.552 v -6.734 h -2.444 v -1.262 h 6.442 v 1.262 h -2.446 z m -49.948,-23.077 -73.525,-0.026 -12.692,24.302 h -16.719 c 0,0 52.105,-98.644 54.18,-102.013 2.074,-3.371 8.018,-14.015 17.611,-13.497 9.591,0.518 13.601,7.819 15.417,10.93 1.813,3.111 55.615,104.58 55.615,104.58 h -26.765 z m -31.436,-58.44 c -2.324,-4.667 -7.603,-5.816 -10.455,-0.373 -1.189,2.247 -23.667,44.476 -23.667,44.476 l 57.965,0.005 z m -94.148,-18.904 0.085,100.591 h -23.91 V 14.119 L 459.535,14.048 V 0.077 L 574.395,0 574.343,14.133 Z M 467.049,185.19 c 3.217,-0.59 6.083,-0.237 6.083,-2.865 0,-2.316 -2.394,-2.747 -4.2,-2.747 -2.511,0 -4.276,1.021 -4.474,3.218 h -4.474 c 0.313,-5.221 4.749,-6.751 9.222,-6.751 3.964,0 8.124,1.61 8.124,5.888 v 10.439 c 0,1.097 0.236,1.53 1.061,1.53 0.274,0 0.628,0 1.098,-0.08 v 3.101 c -0.667,0.236 -2.078,0.51 -2.824,0.51 -1.806,0 -3.102,-0.627 -3.455,-2.471 -1.766,1.728 -4.63,2.471 -7.023,2.471 -3.651,0 -6.946,-1.961 -6.946,-5.925 -10e-4,-5.063 4.041,-5.887 7.808,-6.318 z m 0.785,8.712 c 1.961,0 5.022,-1.021 5.022,-3.848 v -3.334 c -1.373,0.903 -3.531,0.863 -5.495,1.216 -1.922,0.314 -3.648,1.021 -3.648,3.374 0,2.002 2.552,2.592 4.121,2.592 z M 448.409,191.9 v -11.97 h -3.376 v -3.336 h 3.376 v -6.084 h 4.474 v 6.084 h 4.043 v 3.336 h -4.043 v 10.832 c 0,1.845 0.156,2.786 2.159,2.786 0.627,0 1.255,0 1.884,-0.157 v 3.454 c -0.982,0.077 -1.924,0.234 -2.904,0.234 -4.672,0.001 -5.535,-1.804 -5.613,-5.179 z M 419.671,0.708 h 24.313 v 114.546 h -24.313 z m 3.23,190.33 7.182,-22.175 h 4.983 l -9.575,28.022 h -5.455 l -9.341,-28.022 h 5.103 l 7.025,22.175 z m -18.481,6.139 c -3.71,0 -6.35,-2.778 -6.35,-6.453 0,-3.883 2.933,-6.452 6.35,-6.452 3.382,0 6.315,2.569 6.315,6.452 0,3.883 -2.933,6.453 -6.315,6.453 z m 0,-11.784 c -2.794,0 -4.969,2.191 -4.969,5.331 0,2.934 1.897,5.332 4.969,5.332 2.761,0 4.935,-2.174 4.935,-5.332 0,-3.14 -2.174,-5.331 -4.935,-5.331 z m 1.001,5.884 2.002,3.14 h -1.329 l -1.846,-3.053 h -1.104 v 3.053 h -1.174 v -7.142 h 2.709 c 1.726,0 2.604,0.604 2.604,2.053 10e-4,1.292 -0.791,1.829 -1.862,1.949 z m -0.862,-3.003 h -1.415 v 2.089 h 1.312 c 0.88,0 1.656,-0.087 1.656,-1.123 0,-0.862 -0.847,-0.966 -1.553,-0.966 z m -71.81,-72.665 c -9.573,-0.518 -13.575,-7.804 -15.386,-10.908 -1.812,-3.105 -55.51,-104.378 -55.51,-104.378 h 26.714 l 44.471,82.557 c 2.319,4.658 7.59,5.805 10.437,0.371 2.328,-4.398 44.242,-82.928 44.242,-82.928 h 16.688 c 0,0 -52.007,98.453 -54.077,101.816 -2.072,3.364 -8.005,13.988 -17.579,13.47 z m -65.61,60.985 -7.889,21.388 c -1.453,3.651 -2.512,6.948 -7.183,6.948 -1.059,0 -2.079,-0.079 -3.1,-0.236 v -3.769 c 0.706,0.118 1.413,0.274 2.119,0.274 2.08,0 2.59,-1.097 3.139,-2.824 l 0.51,-1.57 -7.692,-20.211 h 4.906 l 5.298,15.149 h 0.078 l 5.142,-15.149 z M 192.749,31.606 v 52.439 c 0,19.174 -8.632,31.137 -32.558,31.137 h -51.396 v -14.178 h 44.842 c 9.177,0 14.66,-7.454 14.66,-16.958 v -52.44 c 0,-16.715 8.118,-31.136 31.88,-31.136 h 51.043 v 14.18 h -44.161 c -11.928,-0.516 -14.31,9.254 -14.31,16.956 z M 91.854,64.053 h -55 c -7.539,0 -13.11,5.736 -13.11,15.568 v 35.723 H 0 V 80.932 C 0,61.595 12.127,48.566 29.333,48.566 h 55.638 c 13.644,-0.519 16.898,-7.291 16.898,-17.124 0,-7.538 -3.771,-17.829 -16.898,-16.793 H 0 V 0.471 h 91.854 c 24.089,0 33.594,13.928 33.594,30.972 0,19.337 -9.505,32.61 -33.594,32.61 z m 121.914,113.483 c 0,3.453 -1.531,8.635 -9.537,8.595 h -7.457 v 10.755 h -4.905 v -28.022 h 12.362 c 8.006,-0.001 9.537,5.179 9.537,8.672 z m -16.994,-4.669 v 9.262 h 7.182 c 2.198,0 4.906,-1.1 4.906,-4.632 0,-3.689 -2.237,-4.63 -4.827,-4.63 z m 25.43,24.018 h -4.474 v -28.022 h 4.474 z m 11.773,-11.695 c 3.218,-0.59 6.083,-0.237 6.083,-2.865 0,-2.316 -2.394,-2.747 -4.2,-2.747 -2.512,0 -4.278,1.021 -4.474,3.218 h -4.474 c 0.313,-5.221 4.749,-6.751 9.222,-6.751 3.964,0 8.125,1.61 8.125,5.888 v 10.439 c 0,1.097 0.235,1.53 1.059,1.53 0.275,0 0.628,0 1.099,-0.08 v 3.101 c -0.667,0.236 -2.079,0.51 -2.826,0.51 -1.804,0 -3.1,-0.627 -3.453,-2.471 -1.767,1.728 -4.631,2.471 -7.024,2.471 -3.65,0 -6.947,-1.961 -6.947,-5.925 0,-5.063 4.042,-5.887 7.81,-6.318 z m 0.785,8.712 c 1.962,0 5.023,-1.021 5.023,-3.848 v -3.334 c -1.374,0.903 -3.532,0.863 -5.495,1.216 -1.923,0.314 -3.649,1.021 -3.649,3.374 0.001,2.002 2.551,2.592 4.121,2.592 z m 46.032,-0.354 c 4.317,0 5.926,-2.12 5.926,-4.238 0,-2.159 -1.177,-3.023 -2.315,-3.454 -1.962,-0.746 -4.513,-1.256 -8.359,-2.315 -4.788,-1.296 -6.2,-4.198 -6.2,-7.104 0,-5.61 5.18,-8.241 10.243,-8.241 5.848,0 10.753,3.101 10.753,8.948 h -4.906 c -0.235,-3.611 -2.669,-4.945 -6.044,-4.945 -2.276,0 -5.141,0.824 -5.141,3.65 0,1.962 1.334,3.06 3.336,3.609 0.431,0.119 6.632,1.727 8.083,2.16 3.689,1.098 5.456,4.237 5.456,7.142 0,6.279 -5.573,8.791 -11.146,8.791 -6.397,0 -11.577,-3.061 -11.695,-10.008 h 4.905 c 10e-4,4.317 3.18,6.005 7.104,6.005 z m 16.011,-23.038 h 4.475 v 6.084 h 4.041 v 3.336 h -4.041 v 10.832 c 0,1.845 0.156,2.786 2.157,2.786 0.628,0 1.257,0 1.884,-0.157 v 3.454 c -0.981,0.077 -1.923,0.234 -2.904,0.234 -4.67,0 -5.534,-1.805 -5.612,-5.18 v -11.97 h -3.375 v -3.336 h 3.375 z m 18.641,14.68 c 3.218,-0.59 6.083,-0.237 6.083,-2.865 0,-2.316 -2.394,-2.747 -4.199,-2.747 -2.512,0 -4.278,1.021 -4.475,3.218 h -4.474 c 0.314,-5.221 4.749,-6.751 9.223,-6.751 3.964,0 8.124,1.61 8.124,5.888 v 10.439 c 0,1.097 0.234,1.53 1.06,1.53 0.275,0 0.627,0 1.099,-0.08 v 3.101 c -0.667,0.236 -2.08,0.51 -2.825,0.51 -1.806,0 -3.101,-0.627 -3.455,-2.471 -1.765,1.728 -4.63,2.471 -7.024,2.471 -3.65,0 -6.946,-1.961 -6.946,-5.925 -10e-4,-5.063 4.041,-5.887 7.809,-6.318 z m 0.784,8.712 c 1.962,0 5.023,-1.021 5.023,-3.848 v -3.334 c -1.374,0.903 -3.531,0.863 -5.494,1.216 -1.922,0.314 -3.649,1.021 -3.649,3.374 0,2.002 2.55,2.592 4.12,2.592 z m 15.854,-23.392 h 4.474 v 6.084 h 4.042 v 3.336 h -4.042 v 10.832 c 0,1.845 0.157,2.786 2.158,2.786 0.628,0 1.256,0 1.885,-0.157 v 3.454 c -0.981,0.077 -1.923,0.234 -2.905,0.234 -4.67,0 -5.533,-1.805 -5.612,-5.18 v -11.97 h -3.375 v -3.336 h 3.375 z m 16.522,2.591 h -4.474 v -4.238 h 4.474 z m 0,23.784 h -4.474 v -20.291 h 4.474 z m 14.363,-20.841 c 6.515,0 10.242,4.475 10.242,10.676 0,6.238 -3.728,10.712 -10.242,10.712 -6.514,0 -10.242,-4.474 -10.242,-10.712 0,-6.201 3.728,-10.676 10.242,-10.676 z m 0,17.858 c 4.004,0 5.769,-3.651 5.769,-7.182 0,-3.494 -1.765,-7.143 -5.769,-7.143 -4.003,0 -5.769,3.648 -5.769,7.143 0.001,3.53 1.766,7.182 5.769,7.182 z m 18.405,-14.324 0.078,0.077 c 1.334,-2.236 3.65,-3.61 6.318,-3.61 4.396,0 7.182,2.354 7.182,6.908 v 13.933 h -4.473 v -12.757 c -0.079,-3.177 -1.336,-4.551 -3.964,-4.551 -2.983,0 -4.906,2.354 -4.906,5.337 v 11.971 h -4.475 v -20.291 h 4.239 v 2.983 z m 60.638,-6.477 h -4.474 v -4.238 h 4.474 z m 0,23.784 h -4.474 v -20.291 h 4.474 z"
   id="path1"
   style="display:none" />
<style
   id="style1">.st0{fill:#a09d9e}.st1{fill:#231f20}.st2{fill:#cf181f}</style><style
   id="style1-6">.st0{fill:#a09d9e}.st1{fill:#231f20}.st2{fill:#cf181f}</style><g
   transform="matrix(0.06644137,0,0,-0.04171176,83.767562,348.19836)"
   fill="#000000"
   stroke="none"
   id="g17"><path
     d="m 2965,8314 c -481,-86 -868,-442 -990,-910 -44,-169 -47,-268 -42,-1579 3,-1204 4,-1232 24,-1325 111,-501 467,-858 973,-976 66,-15 150,-18 691,-21 560,-4 618,-3 633,12 15,15 16,208 16,2396 0,1622 -3,2386 -10,2400 -10,18 -27,19 -613,18 -476,-1 -619,-4 -682,-15 z M 3870,5914 V 3888 l -407,5 c -375,4 -415,6 -490,25 -322,83 -561,331 -628,654 -22,101 -22,2589 -1,2688 60,281 255,514 518,619 132,53 193,59 621,60 l 387,1 z"
     id="path1-5" /><path
     d="m 3051,7329 c -63,-12 -159,-60 -210,-105 -105,-91 -157,-220 -149,-372 4,-79 9,-100 41,-164 47,-97 118,-168 215,-216 67,-33 84,-37 171,-40 79,-3 107,0 160,18 217,73 348,284 311,500 -43,257 -287,429 -539,379 z"
     id="path2" /><path
     d="m 4757,8323 c -4,-3 -7,-1087 -7,-2409 0,-2181 1,-2402 16,-2408 27,-10 803,-6 899,4 406,46 764,293 959,660 25,47 58,126 75,175 63,188 61,138 61,1575 0,1147 -2,1318 -16,1391 -99,521 -496,914 -1018,1004 -70,12 -178,15 -526,15 -240,0 -440,-3 -443,-7 z M 5825,6145 c 156,-41 284,-160 336,-312 33,-94 32,-232 -1,-318 -61,-158 -181,-269 -335,-310 -250,-65 -516,86 -589,334 -22,76 -21,204 4,282 75,245 335,389 585,324 z"
     id="path3" /><path
     d="m 7493,2776 c -155,-51 -247,-200 -221,-362 16,-104 76,-186 168,-233 125,-62 258,-46 358,44 75,68 107,139 107,240 0,95 -28,166 -91,229 -79,79 -221,115 -321,82 z m 177,-146 c 60,-31 93,-81 98,-149 6,-89 -32,-153 -111,-186 -134,-56 -286,73 -248,212 16,62 43,97 93,122 54,26 117,27 168,1 z"
     id="path4" /><path
     d="m 790,2465 v -306 l 63,3 62,3 5,193 5,193 145,-195 145,-196 60,2 60,3 v 300 300 l -62,3 -63,3 v -197 -198 l -147,197 -148,197 h -62 -63 z"
     id="path5" /><path
     d="m 1790,2465 v -305 h 65 65 v 305 305 h -65 -65 z"
     id="path6" /><path
     d="m 2375,2757 c -3,-7 -4,-143 -3,-302 l 3,-290 63,-3 62,-3 v 202 203 l 150,-202 150,-202 h 60 60 v 305 305 h -65 -65 l -2,-192 -3,-192 -144,192 -143,192 h -59 c -39,0 -61,-4 -64,-13 z"
     id="path7" /><path
     d="m 3347,2763 c -4,-3 -7,-33 -7,-65 v -58 h 100 100 v -240 -240 h 65 65 v 240 240 h 95 95 v 65 65 h -253 c -140,0 -257,-3 -260,-7 z"
     id="path8" /><path
     d="m 4300,2465 v -305 h 235 235 v 60 60 h -175 -175 v 70 70 h 160 160 v 55 55 h -160 -160 v 60 60 l 173,2 172,3 3,58 3,57 h -236 -235 z"
     id="path9" /><path
     d="m 5265,2757 c -3,-7 -4,-143 -3,-302 l 3,-290 63,-3 62,-3 v 203 202 l 150,-202 150,-202 h 60 60 v 305 305 h -65 -65 l -2,-192 -3,-192 -144,192 -143,192 h -59 c -39,0 -61,-4 -64,-13 z"
     id="path10" /><path
     d="m 6320,2466 v -306 h 133 c 154,0 227,15 293,61 195,134 165,421 -54,522 -41,19 -69,22 -209,25 l -163,4 z m 327,155 c 84,-39 120,-146 78,-235 -32,-66 -97,-96 -211,-96 h -74 v 175 175 h 83 c 59,0 94,-6 124,-19 z"
     id="path11" /><path
     d="m 6018,1889 c -139,-18 -263,-83 -365,-192 -223,-240 -216,-605 17,-837 86,-87 164,-132 276,-160 184,-47 370,-10 522,105 59,44 136,130 130,145 -2,4 -43,41 -92,84 l -88,77 -27,-35 c -129,-169 -390,-187 -541,-36 -22,22 -52,63 -67,92 -25,48 -28,63 -28,153 0,86 3,107 25,150 74,153 257,236 416,190 74,-21 144,-65 188,-118 l 34,-41 44,36 c 24,19 66,56 93,80 l 50,45 -39,48 c -130,158 -340,240 -548,214 z"
     id="path12" /><path
     d="m 1072,1850 c -238,-63 -361,-222 -308,-402 38,-133 164,-198 499,-258 225,-40 291,-73 291,-144 0,-49 -29,-85 -92,-114 -54,-25 -66,-27 -202,-27 -161,0 -224,13 -343,67 -37,17 -69,29 -71,27 -12,-15 -107,-192 -104,-194 10,-11 170,-69 236,-87 110,-29 345,-36 465,-14 224,42 335,145 345,318 8,143 -32,217 -155,281 -88,46 -164,68 -358,107 -169,33 -217,49 -252,82 -31,29 -31,81 1,113 72,72 330,75 530,5 33,-11 63,-17 67,-13 7,8 79,177 79,187 0,9 -153,54 -239,70 -116,22 -296,20 -389,-4 z"
     id="path13" /><path
     d="m 1924,1843 c 3,-10 73,-259 156,-553 83,-294 153,-543 156,-552 5,-16 21,-18 144,-18 h 139 l 11,38 c 99,358 199,694 204,682 3,-8 50,-172 104,-365 l 98,-350 140,-3 140,-3 159,558 c 87,307 160,564 163,571 3,9 -25,12 -122,12 h -125 l -14,-47 c -8,-27 -56,-207 -107,-400 -52,-194 -96,-353 -100,-353 -3,0 -50,152 -104,338 -54,185 -107,365 -118,400 l -19,63 -102,-3 -102,-3 -117,-400 c -64,-220 -117,-402 -118,-405 -1,-3 -46,159 -99,360 -54,201 -104,384 -110,408 l -12,42 h -125 c -115,0 -125,-1 -120,-17 z"
     id="path14" /><path
     d="M 3820,1290 V 720 h 130 130 l -2,568 -3,567 -127,3 -128,3 z"
     id="path15" /><path
     d="m 4350,1735 v -125 h 180 180 V 1165 720 h 125 125 v 445 445 l 178,2 177,3 v 120 120 l -482,3 -483,2 z"
     id="path16" /><path
     d="M 6860,1290 V 720 h 120 120 v 225 225 h 265 265 V 945 720 h 120 120 l -2,568 -3,567 -117,3 -118,3 v -226 -225 h -265 -265 v 225 225 h -120 -120 z"
     id="path17" /></g></svg>
