<?xml version="1.0" encoding="UTF-8" standalone="no"?>
<!-- Generator: Adobe Illustrator 15.1.0, SVG Export Plug-In  -->

<svg
   version="1.1"
   x="0px"
   y="0px"
   width="800.07452"
   height="229.9937"
   viewBox="-48.423 -13.517 800.07452 229.9937"
   enable-background="new -48.423 -13.517 800 230"
   xml:space="preserve"
   id="svg1"
   xmlns="http://www.w3.org/2000/svg"
   xmlns:svg="http://www.w3.org/2000/svg">
<defs
   id="defs1"><style
     type="text/css"
     id="style6">
   
    .fil0 {fill:#02ABCA}
    .fil1 {fill:#8B8B8B;fill-rule:nonzero}
   
  </style></defs>
<path
   fill-rule="evenodd"
   clip-rule="evenodd"
   d="m 715.82311,114.42215 v -6.248 h -0.04 l -2.388,6.248 h -1.086 l -2.389,-6.248 h -0.037 v 6.248 h -1.457 v -7.996 h 2.252 l 2.192,5.667 2.176,-5.667 h 2.23 v 7.996 z m -11.472,0 h -1.552 v -6.734 h -2.444 v -1.262 h 6.442 v 1.262 h -2.446 z m -49.948,-23.077004 -73.525,-0.026 -12.692,24.302004 h -16.719 c 0,0 52.105,-98.644004 54.18,-102.013004 2.074,-3.371 8.018,-14.01499961 17.611,-13.49699961 9.591,0.518 13.601,7.81900001 15.417,10.92999961 1.813,3.111 55.615,104.580004 55.615,104.580004 h -26.765 z m -31.436,-58.44 c -2.324,-4.667 -7.603,-5.816 -10.455,-0.373 -1.189,2.247 -23.667,44.476 -23.667,44.476 l 57.965,0.005 z m -94.148,-18.904 0.085,100.591004 h -23.91 V 14.109146 l -45.388,-0.071 V 0.06714639 l 114.86,-0.077 -0.052,14.13299961 z m -61.699,171.179004 c 3.217,-0.59 6.083,-0.237 6.083,-2.865 0,-2.316 -2.394,-2.747 -4.2,-2.747 -2.511,0 -4.276,1.021 -4.474,3.218 h -4.474 c 0.313,-5.221 4.749,-6.751 9.222,-6.751 3.964,0 8.124,1.61 8.124,5.888 v 10.439 c 0,1.097 0.236,1.53 1.061,1.53 0.274,0 0.628,0 1.098,-0.08 v 3.101 c -0.667,0.236 -2.078,0.51 -2.824,0.51 -1.806,0 -3.102,-0.627 -3.455,-2.471 -1.766,1.728 -4.63,2.471 -7.023,2.471 -3.651,0 -6.946,-1.961 -6.946,-5.925 -0.001,-5.063 4.041,-5.887 7.808,-6.318 z m 0.785,8.712 c 1.961,0 5.022,-1.021 5.022,-3.848 v -3.334 c -1.373,0.903 -3.531,0.863 -5.495,1.216 -1.922,0.314 -3.648,1.021 -3.648,3.374 0,2.002 2.552,2.592 4.121,2.592 z m -19.425,-2.002 v -11.97 h -3.376 v -3.336 h 3.376 v -6.084 h 4.474 v 6.084 h 4.043 v 3.336 h -4.043 v 10.832 c 0,1.845 0.156,2.786 2.159,2.786 0.627,0 1.255,0 1.884,-0.157 v 3.454 c -0.982,0.077 -1.924,0.234 -2.904,0.234 -4.672,0.001 -5.535,-1.804 -5.613,-5.179 z M 419.74211,0.69814639 h 24.313 V 115.24415 h -24.313 z m 3.23,190.33000361 7.182,-22.175 h 4.983 l -9.575,28.022 h -5.455 l -9.341,-28.022 h 5.103 l 7.025,22.175 z m -18.481,6.139 c -3.71,0 -6.35,-2.778 -6.35,-6.453 0,-3.883 2.933,-6.452 6.35,-6.452 3.382,0 6.315,2.569 6.315,6.452 0,3.883 -2.933,6.453 -6.315,6.453 z m 0,-11.784 c -2.794,0 -4.969,2.191 -4.969,5.331 0,2.934 1.897,5.332 4.969,5.332 2.761,0 4.935,-2.174 4.935,-5.332 0,-3.14 -2.174,-5.331 -4.935,-5.331 z m 1.001,5.884 2.002,3.14 h -1.329 l -1.846,-3.053 h -1.104 v 3.053 h -1.174 v -7.142 h 2.709 c 1.726,0 2.604,0.604 2.604,2.053 0.001,1.292 -0.791,1.829 -1.862,1.949 z m -0.862,-3.003 h -1.415 v 2.089 h 1.312 c 0.88,0 1.656,-0.087 1.656,-1.123 0,-0.862 -0.847,-0.966 -1.553,-0.966 z m -71.81,-72.665 c -9.573,-0.518 -13.575,-7.804 -15.386,-10.908 -1.812,-3.105 -55.51,-104.37800361 -55.51,-104.37800361 h 26.714 l 44.471,82.55699961 c 2.319,4.658 7.59,5.805 10.437,0.371 2.328,-4.398 44.242,-82.92799961 44.242,-82.92799961 h 16.688 c 0,0 -52.007,98.45299961 -54.077,101.81600361 -2.072,3.364 -8.005,13.988 -17.579,13.47 z m -65.61,60.985 -7.889,21.388 c -1.453,3.651 -2.512,6.948 -7.183,6.948 -1.059,0 -2.079,-0.079 -3.1,-0.236 v -3.769 c 0.706,0.118 1.413,0.274 2.119,0.274 2.08,0 2.59,-1.097 3.139,-2.824 l 0.51,-1.57 -7.692,-20.211 h 4.906 l 5.298,15.149 h 0.078 l 5.142,-15.149 z m -74.39,-144.988004 v 52.439 c 0,19.174004 -8.632,31.137004 -32.558,31.137004 h -51.396 v -14.178 h 44.842 c 9.177,0 14.66,-7.454004 14.66,-16.958004 v -52.44 c 0,-16.715 8.118,-31.13599961 31.88,-31.13599961 h 51.043 V 14.640146 h -44.161 c -11.928,-0.516 -14.31,9.254 -14.31,16.956 z m -100.894998,32.447 h -55 c -7.539,0 -13.11,5.736 -13.11,15.568 V 115.33415 H 0.07111152 V 80.922146 c 0,-19.337 12.12700048,-32.366 29.33300048,-32.366 h 55.638 c 13.644,-0.519 16.897998,-7.291 16.897998,-17.124 0,-7.538 -3.770998,-17.829 -16.897998,-16.793 H 0.07111152 V 0.46114639 H 91.925112 c 24.088998,0 33.593998,13.92799961 33.593998,30.97199961 0,19.337 -9.505,32.61 -33.593998,32.61 z M 213.83911,177.52615 c 0,3.453 -1.531,8.635 -9.537,8.595 h -7.457 v 10.755 h -4.905 v -28.022 h 12.362 c 8.006,-0.001 9.537,5.179 9.537,8.672 z m -16.994,-4.669 v 9.262 h 7.182 c 2.198,0 4.906,-1.1 4.906,-4.632 0,-3.689 -2.237,-4.63 -4.827,-4.63 z m 25.43,24.018 h -4.474 v -28.022 h 4.474 z m 11.773,-11.695 c 3.218,-0.59 6.083,-0.237 6.083,-2.865 0,-2.316 -2.394,-2.747 -4.2,-2.747 -2.512,0 -4.278,1.021 -4.474,3.218 h -4.474 c 0.313,-5.221 4.749,-6.751 9.222,-6.751 3.964,0 8.125,1.61 8.125,5.888 v 10.439 c 0,1.097 0.235,1.53 1.059,1.53 0.275,0 0.628,0 1.099,-0.08 v 3.101 c -0.667,0.236 -2.079,0.51 -2.826,0.51 -1.804,0 -3.1,-0.627 -3.453,-2.471 -1.767,1.728 -4.631,2.471 -7.024,2.471 -3.65,0 -6.947,-1.961 -6.947,-5.925 0,-5.063 4.042,-5.887 7.81,-6.318 z m 0.785,8.712 c 1.962,0 5.023,-1.021 5.023,-3.848 v -3.334 c -1.374,0.903 -3.532,0.863 -5.495,1.216 -1.923,0.314 -3.649,1.021 -3.649,3.374 0.001,2.002 2.551,2.592 4.121,2.592 z m 46.032,-0.354 c 4.317,0 5.926,-2.12 5.926,-4.238 0,-2.159 -1.177,-3.023 -2.315,-3.454 -1.962,-0.746 -4.513,-1.256 -8.359,-2.315 -4.788,-1.296 -6.2,-4.198 -6.2,-7.104 0,-5.61 5.18,-8.241 10.243,-8.241 5.848,0 10.753,3.101 10.753,8.948 h -4.906 c -0.235,-3.611 -2.669,-4.945 -6.044,-4.945 -2.276,0 -5.141,0.824 -5.141,3.65 0,1.962 1.334,3.06 3.336,3.609 0.431,0.119 6.632,1.727 8.083,2.16 3.689,1.098 5.456,4.237 5.456,7.142 0,6.279 -5.573,8.791 -11.146,8.791 -6.397,0 -11.577,-3.061 -11.695,-10.008 h 4.905 c 0.001,4.317 3.18,6.005 7.104,6.005 z m 16.011,-23.038 h 4.475 v 6.084 h 4.041 v 3.336 h -4.041 v 10.832 c 0,1.845 0.156,2.786 2.157,2.786 0.628,0 1.257,0 1.884,-0.157 v 3.454 c -0.981,0.077 -1.923,0.234 -2.904,0.234 -4.67,0 -5.534,-1.805 -5.612,-5.18 v -11.97 h -3.375 v -3.336 h 3.375 z m 18.641,14.68 c 3.218,-0.59 6.083,-0.237 6.083,-2.865 0,-2.316 -2.394,-2.747 -4.199,-2.747 -2.512,0 -4.278,1.021 -4.475,3.218 h -4.474 c 0.314,-5.221 4.749,-6.751 9.223,-6.751 3.964,0 8.124,1.61 8.124,5.888 v 10.439 c 0,1.097 0.234,1.53 1.06,1.53 0.275,0 0.627,0 1.099,-0.08 v 3.101 c -0.667,0.236 -2.08,0.51 -2.825,0.51 -1.806,0 -3.101,-0.627 -3.455,-2.471 -1.765,1.728 -4.63,2.471 -7.024,2.471 -3.65,0 -6.946,-1.961 -6.946,-5.925 -10e-4,-5.063 4.041,-5.887 7.809,-6.318 z m 0.784,8.712 c 1.962,0 5.023,-1.021 5.023,-3.848 v -3.334 c -1.374,0.903 -3.531,0.863 -5.494,1.216 -1.922,0.314 -3.649,1.021 -3.649,3.374 0,2.002 2.55,2.592 4.12,2.592 z m 15.854,-23.392 h 4.474 v 6.084 h 4.042 v 3.336 h -4.042 v 10.832 c 0,1.845 0.157,2.786 2.158,2.786 0.628,0 1.256,0 1.885,-0.157 v 3.454 c -0.981,0.077 -1.923,0.234 -2.905,0.234 -4.67,0 -5.533,-1.805 -5.612,-5.18 v -11.97 h -3.375 v -3.336 h 3.375 z m 16.522,2.591 h -4.474 v -4.238 h 4.474 z m 0,23.784 h -4.474 v -20.291 h 4.474 z m 14.363,-20.841 c 6.515,0 10.242,4.475 10.242,10.676 0,6.238 -3.728,10.712 -10.242,10.712 -6.514,0 -10.242,-4.474 -10.242,-10.712 0,-6.201 3.728,-10.676 10.242,-10.676 z m 0,17.858 c 4.004,0 5.769,-3.651 5.769,-7.182 0,-3.494 -1.765,-7.143 -5.769,-7.143 -4.003,0 -5.769,3.648 -5.769,7.143 10e-4,3.53 1.766,7.182 5.769,7.182 z m 18.405,-14.324 0.078,0.077 c 1.334,-2.236 3.65,-3.61 6.318,-3.61 4.396,0 7.182,2.354 7.182,6.908 v 13.933 h -4.473 v -12.757 c -0.079,-3.177 -1.336,-4.551 -3.964,-4.551 -2.983,0 -4.906,2.354 -4.906,5.337 v 11.971 h -4.475 v -20.291 h 4.239 v 2.983 z m 60.638,-6.477 h -4.474 v -4.238 h 4.474 z m 0,23.784 h -4.474 v -20.291 h 4.474 z"
   id="path1"
   style="display:none" />
<style
   id="style1">.st0{fill:#a09d9e}.st1{fill:#231f20}.st2{fill:#cf181f}</style><style
   id="style1-6">.st0{fill:#a09d9e}.st1{fill:#231f20}.st2{fill:#cf181f}</style><style
   id="style1-7">.st0{fill:#a09d9e}.st1{fill:#231f20}.st2{fill:#cf181f}</style><g
   transform="matrix(1.0839101,0,0,2.2495924,-86.299345,-605.57306)"
   id="g101650"><path
     d="m 487.38946,354.59939 c 0,1.07926 -0.88502,2.05058 -1.9751,2.05058 h -37.79667 c -1.10087,0 -1.98589,-0.97132 -1.98589,-2.05058 v -27.30603 c 0,-1.07926 0.88502,-1.94271 1.98589,-1.94271 h 37.79667 c 1.09008,0 1.9751,0.86345 1.9751,1.94271 z m -1.64052,-37.45129 h -38.47662 c -5.56913,0 -10.11293,4.533 -10.11293,10.14526 v 27.41389 c 0,5.5044 4.5438,10.14535 10.11293,10.14535 h 38.47662 c 5.57992,0 10.11293,-4.64095 10.11293,-10.14535 v -27.41389 c 0,-5.61226 -4.53301,-10.14526 -10.11293,-10.14526"
     style="fill:#929497;fill-rule:nonzero;stroke:none"
     id="path100608" /><path
     d="m 44.363266,276.13513 c 0,0 0,34.75306 0,35.29269 -0.464094,0 -8.353689,0 -8.828578,0 0,-0.53963 0,-47.16487 0,-47.7045 0.496468,0 7.317575,0 7.544221,0 l 35.756819,34.75307 c 0,0 0,-34.21344 0,-34.75307 0.485674,0 7.069332,0 7.069332,0 0,0 1.251975,0 1.640518,0 0,0.53963 0,47.16487 0,47.7045 -0.47488,0 -6.659201,0 -6.89665,0 L 44.363266,276.13513"
     style="fill:#221f1f;fill-rule:nonzero;stroke:none"
     id="path100618" /><path
     d="m 132.87569,276.13513 c 0,0 0,34.75306 0,35.29269 -0.47489,0 -8.34291,0 -8.82858,0 0,-0.53963 0,-47.16487 0,-47.7045 0.49647,0 7.30678,0 7.53342,0 l 35.75682,34.75307 c 0,0 0,-34.21344 0,-34.75307 0.48569,0 7.08013,0 7.08013,0 0,0 1.26277,0 1.64053,0 0,0.53963 0,47.16487 0,47.7045 -0.48569,0 -6.65921,0 -6.89666,0 l -36.28566,-35.29269"
     style="fill:#221e1f;fill-rule:nonzero;stroke:none;stroke-width:0.05;stroke-linecap:butt;stroke-linejoin:miter;stroke-miterlimit:4;stroke-dasharray:none"
     id="path100622" /><path
     d="m 316.32229,276.13513 c 0,0 0,34.75306 0,35.29269 -0.48568,0 -8.3429,0 -8.82858,0 0,-0.53963 0,-47.16487 0,-47.7045 0.49648,0 7.31757,0 7.53343,0 l 35.75682,34.75307 c 0,0 0,-34.21344 0,-34.75307 0.48568,0 7.08013,0 7.08013,0 0,0 1.26277,0 1.64052,0 0,0.53963 0,47.16487 0,47.7045 -0.48569,0 -6.65921,0 -6.88586,0 l -36.29646,-35.29269"
     style="fill:#221e1f;fill-rule:nonzero;stroke:none;stroke-width:0.05;stroke-linecap:butt;stroke-linejoin:miter;stroke-miterlimit:4;stroke-dasharray:none"
     id="path100626" /><path
     d="m 108.57011,263.72332 c 0,0 1.25198,0 1.62973,0 0,0.53963 0,47.16487 0,47.7045 -0.4641,0 -8.35369,0 -8.82858,0 0,-0.53963 0,-47.16487 0,-47.7045 0.48568,0 7.19885,0 7.19885,0"
     style="fill:#221e1f;fill-rule:nonzero;stroke:none;stroke-width:0.05;stroke-linecap:butt;stroke-linejoin:miter;stroke-miterlimit:4;stroke-dasharray:none"
     id="path100630" /><path
     d="m 236.18514,263.72332 c 0,0 1.23039,0 1.61893,0 0,0.43169 0,7.77086 0,8.20255 -0.51805,0 -21.28355,0 -21.28355,0 0,0 0,38.96232 0,39.50195 -0.47489,0 -8.69907,0 -9.17396,0 0,-0.53963 0,-39.50195 0,-39.50195 0,0 -20.7655,0 -21.28356,0 0,-0.43169 0,-7.77086 0,-8.20255 0.52885,0 50.12214,0 50.12214,0"
     style="fill:#221e1f;fill-rule:nonzero;stroke:none;stroke-width:0.05;stroke-linecap:butt;stroke-linejoin:miter;stroke-miterlimit:4;stroke-dasharray:none"
     id="path100634" /><path
     d="m 292.73985,263.72332 c 0,0 1.27355,0 1.6513,0 0,0.43169 0,7.77086 0,8.20255 -0.50726,0 -37.83984,0 -37.83984,0 v 10.68497 c 0,0 28.77382,0 29.2703,0 0,0.53963 0,7.66292 0,8.20263 -0.49648,0 -29.2703,0 -29.2703,0 v 12.4118 c 0,0 37.33258,0 37.83984,0 0,0.43169 0,7.66292 0,8.20255 -0.50726,0 -46.0748,0 -46.58207,0 0,-0.53963 0,-47.16487 0,-47.7045 0.50727,0 44.93077,0 44.93077,0"
     style="fill:#221e1f;fill-rule:nonzero;stroke:none;stroke-width:0.05;stroke-linecap:butt;stroke-linejoin:miter;stroke-miterlimit:4;stroke-dasharray:none"
     id="path100638" /><path
     d="m 408.59063,303.22527 h -27.11172 v -31.2994 h 27.11172 c 8.4832,0 11.49442,8.41843 11.49442,15.64966 0,7.12337 -3.01122,15.64974 -11.49442,15.64974 z m 14.48405,-32.4866 c -3.45372,-4.64095 -8.55876,-7.01535 -14.73228,-7.01535 0,0 -34.86101,0 -35.37907,0 0,0.53963 0,47.16487 0,47.7045 0.51806,0 35.37907,0 35.37907,0 6.17352,0 11.27856,-2.48235 14.73228,-7.01535 3.23786,-4.20926 4.95393,-10.0374 4.95393,-16.83694 0,-6.79946 -1.71607,-12.6276 -4.95393,-16.83686"
     style="fill:#221e1f;fill-rule:nonzero;stroke:none;stroke-width:0.05;stroke-linecap:butt;stroke-linejoin:miter;stroke-miterlimit:4;stroke-dasharray:none"
     id="path100642" /><path
     d="m 487.38946,301.28256 c 0,0.97131 -0.88502,1.94271 -1.9751,1.94271 h -37.79667 c -1.10087,0 -1.98589,-0.9714 -1.98589,-1.94271 v -27.41398 c 0,-1.07925 0.88502,-1.94271 1.98589,-1.94271 h 37.79667 c 1.09008,0 1.9751,0.86346 1.9751,1.94271 z m -1.64052,-37.55924 h -38.47662 c -5.56913,0 -10.11293,4.53301 -10.11293,10.14526 v 27.41398 c 0,5.61226 4.5438,10.14526 10.11293,10.14526 h 38.47662 c 5.57992,0 10.11293,-4.533 10.11293,-10.14526 v -27.41398 c 0,-5.61225 -4.53301,-10.14526 -10.11293,-10.14526"
     style="fill:#221e1f;fill-rule:nonzero;stroke:none;stroke-width:0.05;stroke-linecap:butt;stroke-linejoin:miter;stroke-miterlimit:4;stroke-dasharray:none"
     id="path100646" /><path
     d="m 646.02323,344.66994 c 9.15236,3.66954 28.48239,6.58365 43.57084,6.58365 16.51311,0 23.34504,-5.61234 23.34504,-12.73563 0,-6.47571 -6.34627,-10.14534 -24.57542,-16.83686 -24.38113,-8.95814 -42.26491,-16.08143 -42.26491,-32.16286 0,-16.51303 21.52103,-26.33454 54.32058,-26.33454 17.61397,0 23.658,1.07925 34.83942,3.12991 l 0.0864,15.7576 c -10.98721,-2.05065 -20.72237,-5.61234 -35.8432,-5.61234 -16.21087,0 -23.11836,5.18057 -23.11836,10.46909 0,7.663 10.6418,11.33254 29.30272,18.02414 25.97842,9.28189 40.43009,16.40517 40.43009,32.05483 0,16.18938 -18.09962,27.84567 -58.9183,27.84567 -16.76139,0 -28.32053,-1.07926 -41.17485,-3.23786 v -16.9448"
     style="fill:#221e1f;fill-rule:nonzero;stroke:none;stroke-width:0.05;stroke-linecap:butt;stroke-linejoin:miter;stroke-miterlimit:4;stroke-dasharray:none"
     id="path100656" /><path
     d="m 559.14054,277.10644 h -19.42719 v 73.60752 h 19.42719 c 29.82072,0 48.63272,-12.84357 48.63272,-36.69586 0,-23.8522 -18.812,-36.91166 -48.63272,-36.91166 z m 52.1404,80.40698 c -9.60566,4.3172 -27.78087,7.12329 -43.66799,7.12329 H 506.89219 V 263.3995 h 60.72076 c 15.88712,0 34.06233,2.80617 43.68958,7.12328 23.38818,10.57703 31.00795,27.52192 31.00795,43.49532 0,15.97349 -7.55501,32.91829 -31.02954,43.49532"
     style="fill:#221e1f;fill-rule:nonzero;stroke:none;stroke-width:0.05;stroke-linecap:butt;stroke-linejoin:miter;stroke-miterlimit:4;stroke-dasharray:none"
     id="path100660" /><path
     d="m 752.21438,349.52668 h -3.89623 v -1.40309 h 9.48698 v 1.40309 h -3.91781 v 11.33254 h -1.67294 v -11.33254"
     style="fill:#221e1f;fill-rule:nonzero;stroke:none;stroke-width:0.05;stroke-linecap:butt;stroke-linejoin:miter;stroke-miterlimit:4;stroke-dasharray:none"
     id="path100678" /><path
     d="m 769.96866,355.24697 c -0.0971,-1.72692 -0.205,-3.88543 -0.205,-5.50441 h -0.0432 c -0.45336,1.51103 -0.9714,3.12992 -1.61897,4.85683 l -2.25575,6.25983 h -1.25197 l -2.09374,-6.15197 c -0.60448,-1.83477 -1.10094,-3.45366 -1.45706,-4.96469 h -0.0432 c -0.0324,1.61898 -0.12953,3.77749 -0.23747,5.61226 l -0.34533,5.5044 h -1.5758 l 0.89584,-12.73563 h 2.10463 l 2.1801,6.15198 c 0.52884,1.61897 0.94982,3.02197 1.29515,4.3172 h 0.0324 c 0.34542,-1.29523 0.79869,-2.69823 1.3707,-4.3172 l 2.27734,-6.15198 h 2.10454 l 0.79869,12.73563 h -1.62968 l -0.30224,-5.61225"
     style="fill:#221e1f;fill-rule:nonzero;stroke:none;stroke-width:0.05;stroke-linecap:butt;stroke-linejoin:miter;stroke-miterlimit:4;stroke-dasharray:none"
     id="path100682" /></g></svg>
