<?xml version="1.0" encoding="UTF-8" standalone="no"?>
<svg
   version="1.0"
   x="0px"
   y="0px"
   viewBox="0 0 74 92.5"
   style="enable-background:new 0 0 74 74;"
   xml:space="preserve"
   id="svg32"
   sodipodi:docname="noun-gaming-pc-4275825.svg"
   inkscape:version="1.2.2 (b0a8486541, 2022-12-01)"
   xmlns:inkscape="http://www.inkscape.org/namespaces/inkscape"
   xmlns:sodipodi="http://sodipodi.sourceforge.net/DTD/sodipodi-0.dtd"
   xmlns="http://www.w3.org/2000/svg"
   xmlns:svg="http://www.w3.org/2000/svg"><defs
     id="defs36" /><sodipodi:namedview
     id="namedview34"
     pagecolor="#ffffff"
     bordercolor="#000000"
     borderopacity="0.25"
     inkscape:showpageshadow="2"
     inkscape:pageopacity="0.0"
     inkscape:pagecheckerboard="0"
     inkscape:deskcolor="#d1d1d1"
     showgrid="false"
     inkscape:zoom="5.1027027"
     inkscape:cx="47.425847"
     inkscape:cy="47.915784"
     inkscape:window-width="1440"
     inkscape:window-height="876"
     inkscape:window-x="0"
     inkscape:window-y="0"
     inkscape:window-maximized="1"
     inkscape:current-layer="svg32" /><g
     id="g26"><path
       d="M56.08,45.88c1.88,0,3.42-1.53,3.42-3.42c0-1.07-0.49-2.05-1.36-2.7c-0.29-0.22-0.7-0.16-0.92,0.13   c-0.22,0.29-0.16,0.7,0.13,0.92c0.53,0.4,0.84,1.01,0.84,1.66c0,1.16-0.94,2.1-2.11,2.1c-1.15,0-2.09-0.94-2.09-2.1   c0-0.65,0.3-1.26,0.83-1.66c0.29-0.22,0.34-0.63,0.12-0.92c-0.22-0.29-0.63-0.34-0.92-0.12c-0.86,0.65-1.35,1.64-1.35,2.7   C52.68,44.34,54.21,45.88,56.08,45.88z"
       id="path2" /><path
       d="M56.09,42.99c0.36,0,0.66-0.29,0.66-0.66v-3.48c0-0.36-0.29-0.66-0.66-0.66s-0.66,0.29-0.66,0.66v3.48   C55.43,42.7,55.73,42.99,56.09,42.99z"
       id="path4" /><path
       d="M54.66,47.6c-1.06,0-1.92,0.86-1.92,1.92c0,1.05,0.86,1.91,1.92,1.91c1.05,0,1.91-0.86,1.91-1.91   C56.57,48.46,55.71,47.6,54.66,47.6z M54.66,50.12c-0.34,0-0.61-0.27-0.61-0.59c0-0.34,0.27-0.61,0.61-0.61   c0.33,0,0.59,0.27,0.59,0.61C55.25,49.85,54.99,50.12,54.66,50.12z"
       id="path6" /><path
       d="M59.15,47.73c-0.99,0-1.8,0.81-1.8,1.79c0,0.98,0.8,1.78,1.8,1.78c0.98,0,1.78-0.8,1.78-1.78   C60.93,48.53,60.13,47.73,59.15,47.73z M59.15,49.99c-0.27,0-0.48-0.21-0.48-0.47c0-0.27,0.21-0.48,0.48-0.48   c0.26,0,0.47,0.22,0.47,0.48C59.62,49.78,59.4,49.99,59.15,49.99z"
       id="path8" /><path
       d="M65.94,9.35H46.24c-1.69,0-3.06,1.37-3.06,3.06l0,9.79H7.8c-1.54,0-2.8,1.26-2.8,2.8v27.72c0,1.54,1.25,2.8,2.8,2.8   l14.51,0v4.69h-4.08c-0.95,0-1.73,0.77-1.73,1.73v1c0,0.95,0.78,1.73,1.73,1.73h20.5c0.95,0,1.73-0.77,1.73-1.73v-1   c0-0.95-0.78-1.73-1.73-1.73h-4.08v-4.69l8.53,0v0.72c0,1.69,1.37,3.06,3.06,3.06h19.71c1.69,0,3.06-1.37,3.06-3.06V24.57   c0,0,0,0,0,0V12.4C69,10.72,67.63,9.35,65.94,9.35z M38.73,61.51c0.23,0,0.42,0.19,0.42,0.42v1c0,0.23-0.19,0.42-0.42,0.42h-20.5   c-0.23,0-0.42-0.19-0.42-0.42v-1c0-0.23,0.19-0.42,0.42-0.42H38.73z M23.62,60.2v-4.69h9.72v4.69H23.62z M46.24,57.97   c-0.96,0-1.75-0.78-1.75-1.75v-0.72l4.18,0c0.3,0,0.59-0.05,0.86-0.13l0.85,2.59H46.24z M50.64,52.23c0,1.09-0.88,1.97-1.97,1.97   l-40.87,0c-0.82,0-1.49-0.67-1.49-1.49V24.99c0-0.82,0.67-1.49,1.49-1.49h41.35c0.82,0,1.49,0.67,1.49,1.49V52.23z M51.77,57.97   l-1.05-3.2c0.75-0.6,1.24-1.51,1.24-2.55V29.86h6.59c0.98,0,1.95-0.25,2.81-0.71l0.31-0.17l-0.86,5.01   c-0.24,1.4,0.02,2.84,0.73,4.07l2.22,3.83c0.68,1.17,0.83,2.58,0.4,3.87l-4.03,12.21H51.77z M67.69,56.22   c0,0.96-0.78,1.75-1.75,1.75h-4.43l3.89-11.8c0.54-1.64,0.36-3.44-0.51-4.94l-2.22-3.83c-0.56-0.96-0.76-2.09-0.57-3.19l1.03-6.02   l4.56-2.46V56.22z M67.69,24.24L60.73,28c-0.67,0.36-1.43,0.55-2.19,0.55h-6.59v-3.56c0-1.54-1.26-2.8-2.8-2.8h-4.66l0-9.79   c0-0.96,0.78-1.75,1.75-1.75h19.71c0.96,0,1.75,0.78,1.75,1.75V24.24z"
       id="path10" /><path
       d="M63.5,13.61H48.68c-0.36,0-0.66,0.29-0.66,0.66s0.29,0.66,0.66,0.66H63.5c0.36,0,0.66-0.29,0.66-0.66   S63.86,13.61,63.5,13.61z"
       id="path12" /><path
       d="M63.5,16.89H48.68c-0.36,0-0.66,0.29-0.66,0.66s0.29,0.66,0.66,0.66H63.5c0.36,0,0.66-0.29,0.66-0.66   S63.86,16.89,63.5,16.89z"
       id="path14" /><path
       d="M63.5,20.17H48.68c-0.36,0-0.66,0.29-0.66,0.66s0.29,0.66,0.66,0.66H63.5c0.36,0,0.66-0.29,0.66-0.66   S63.86,20.17,63.5,20.17z"
       id="path16" /><path
       d="M58.37,24.15h-4.57c-0.36,0-0.66,0.29-0.66,0.66c0,0.36,0.29,0.66,0.66,0.66h4.57c0.36,0,0.66-0.29,0.66-0.66   C59.03,24.44,58.73,24.15,58.37,24.15z"
       id="path18" /><path
       d="M48.08,25.41H8.87c-0.36,0-0.66,0.29-0.66,0.66v22.74c0,0.36,0.29,0.66,0.66,0.66h39.21c0.36,0,0.66-0.29,0.66-0.66V26.06   C48.74,25.7,48.44,25.41,48.08,25.41z M47.42,48.15H9.52V26.72h37.9V48.15z"
       id="path20" /><path
       d="M28.47,49.91c-1.06,0-1.92,0.86-1.92,1.92c0,1.06,0.86,1.92,1.92,1.92c1.06,0,1.92-0.86,1.92-1.92   C30.39,50.77,29.53,49.91,28.47,49.91z M28.47,52.43c-0.33,0-0.6-0.27-0.6-0.6c0-0.33,0.27-0.6,0.6-0.6s0.6,0.27,0.6,0.6   C29.08,52.16,28.81,52.43,28.47,52.43z"
       id="path22" /><path
       d="M19.66,46.1c0.32,0.32,0.74,0.48,1.17,0.48c0.43,0,0.86-0.16,1.18-0.49l3.14-3.14l0.92,0.92c0.13,0.13,0.3,0.19,0.46,0.19   S26.87,44,27,43.87c0.26-0.26,0.26-0.67,0-0.93l-0.7-0.7l2.18-2l2.19,2l-0.7,0.7c-0.26,0.26-0.26,0.67,0,0.93   c0.13,0.13,0.3,0.19,0.46,0.19s0.34-0.06,0.46-0.19l0.92-0.92l2.84,2.75c0.31,0.3,0.72,0.47,1.15,0.47c0.01,0,0.02,0,0.03,0   c0.44-0.01,0.86-0.19,1.17-0.51c0.63-0.66,0.61-1.71-0.04-2.34l-2.8-2.71l0.91-0.91c0.26-0.26,0.26-0.67,0-0.93   c-0.26-0.26-0.67-0.26-0.93,0l-0.7,0.7l-1.87-2.04l5.61-5.14c0.13-0.12,0.21-0.29,0.21-0.46l0.09-2.86   c0.01-0.18-0.06-0.36-0.19-0.48c-0.13-0.13-0.29-0.19-0.48-0.19l-2.88,0.08c-0.18,0.01-0.34,0.08-0.47,0.21l-5,5.46l-4.99-5.46   c-0.12-0.13-0.29-0.21-0.47-0.21l-2.87-0.09c-0.17,0.02-0.35,0.06-0.48,0.19c-0.13,0.13-0.2,0.3-0.19,0.48l0.09,2.87   c0.01,0.18,0.08,0.34,0.21,0.46l5.62,5.14l-1.87,2.04l-0.7-0.7c-0.26-0.26-0.67-0.26-0.93,0c-0.26,0.26-0.26,0.67,0,0.93l0.92,0.92   l-3.14,3.14C19.02,44.4,19.01,45.46,19.66,46.1z M32.87,41.88l0.35-0.34l2.82,2.72c0.14,0.13,0.14,0.35,0.01,0.49   c-0.09,0.09-0.19,0.11-0.24,0.11c-0.07,0-0.16-0.01-0.25-0.1l-2.82-2.74L32.87,41.88z M34.25,29.67l1.9-0.05l-0.06,1.89l-5.41,4.95   l-1.32-1.44L34.25,29.67z M20.86,31.51l-0.06-1.9l1.9,0.06L32.5,40.4l-0.92,0.92L20.86,31.51z M26.35,38.31l1.14,1.04l-2.13,1.96   l-0.92-0.92L26.35,38.31z M20.6,44.68l3.14-3.14l0.49,0.49l-3.14,3.14c-0.14,0.14-0.37,0.14-0.5,0.01   C20.45,45.04,20.46,44.82,20.6,44.68z"
       id="path24" /></g><path
     id="text30"
     d="m 1.1503906,93.025391 c -0.00654,0.0025 -0.013311,0.0045 -0.019531,0.0078 -0.064856,0.03439 -0.2173834,0.08267 -0.1699219,0.138672 0.0690165,0.08143 0.1298423,-0.0018 0.1894531,-0.121094 z m 51.1855474,0.945312 c -0.01964,0.01203 -0.03666,0.02742 -0.05664,0.03906 -0.06467,0.02796 -0.129671,0.05426 -0.193359,0.08398 0.0826,-0.008 0.170019,-0.0086 0.25,-0.0332 z" /></svg>
