<?xml version="1.0" encoding="UTF-8" standalone="no"?>
<!-- Generator: Adobe Illustrator 15.1.0, SVG Export Plug-In  -->

<svg
   version="1.1"
   x="0px"
   y="0px"
   width="800.44104"
   height="230.02293"
   viewBox="-48.423 -13.517 800.44104 230.02293"
   enable-background="new -48.423 -13.517 800 230"
   xml:space="preserve"
   id="svg1"
   xmlns="http://www.w3.org/2000/svg"
   xmlns:svg="http://www.w3.org/2000/svg">
<defs
   id="defs1"><style
     type="text/css"
     id="style6">
   
    .fil0 {fill:#02ABCA}
    .fil1 {fill:#8B8B8B;fill-rule:nonzero}
   
  </style></defs>
<path
   fill-rule="evenodd"
   clip-rule="evenodd"
   d="m 715.73232,114.39107 v -6.248 h -0.04 l -2.388,6.248 h -1.086 l -2.389,-6.248 h -0.037 v 6.248 h -1.457 v -7.996 h 2.252 l 2.192,5.667 2.176,-5.667 h 2.23 v 7.996 z m -11.472,0 h -1.552 v -6.734 h -2.444 v -1.262 h 6.442 v 1.262 h -2.446 z m -49.948,-23.076995 -73.525,-0.026 -12.692,24.301995 h -16.719 c 0,0 52.105,-98.643995 54.18,-102.012995 2.074,-3.371 8.018,-14.01500019 17.611,-13.49700019 9.591,0.518 13.601,7.81899999 15.417,10.93000019 1.813,3.111 55.615,104.579995 55.615,104.579995 h -26.765 z m -31.436,-58.44 c -2.324,-4.667 -7.603,-5.816 -10.455,-0.373 -1.189,2.247 -23.667,44.476 -23.667,44.476 l 57.965,0.005 z m -94.148,-18.904 0.085,100.590995 h -23.91 V 14.078075 l -45.388,-0.071 V 0.03607481 l 114.86,-0.077 -0.052,14.13300019 z m -61.699,171.178995 c 3.217,-0.59 6.083,-0.237 6.083,-2.865 0,-2.316 -2.394,-2.747 -4.2,-2.747 -2.511,0 -4.276,1.021 -4.474,3.218 h -4.474 c 0.313,-5.221 4.749,-6.751 9.222,-6.751 3.964,0 8.124,1.61 8.124,5.888 v 10.439 c 0,1.097 0.236,1.53 1.061,1.53 0.274,0 0.628,0 1.098,-0.08 v 3.101 c -0.667,0.236 -2.078,0.51 -2.824,0.51 -1.806,0 -3.102,-0.627 -3.455,-2.471 -1.766,1.728 -4.63,2.471 -7.023,2.471 -3.651,0 -6.946,-1.961 -6.946,-5.925 -10e-4,-5.063 4.041,-5.887 7.808,-6.318 z m 0.785,8.712 c 1.961,0 5.022,-1.021 5.022,-3.848 v -3.334 c -1.373,0.903 -3.531,0.863 -5.495,1.216 -1.922,0.314 -3.648,1.021 -3.648,3.374 0,2.002 2.552,2.592 4.121,2.592 z m -19.425,-2.002 v -11.97 h -3.376 v -3.336 h 3.376 v -6.084 h 4.474 v 6.084 h 4.043 v 3.336 h -4.043 v 10.832 c 0,1.845 0.156,2.786 2.159,2.786 0.627,0 1.255,0 1.884,-0.157 v 3.454 c -0.982,0.077 -1.924,0.234 -2.904,0.234 -4.672,0.001 -5.535,-1.804 -5.613,-5.179 z M 419.65132,0.66707481 h 24.313 V 115.21307 h -24.313 z m 3.23,190.32999519 7.182,-22.175 h 4.983 l -9.575,28.022 h -5.455 l -9.341,-28.022 h 5.103 l 7.025,22.175 z m -18.481,6.139 c -3.71,0 -6.35,-2.778 -6.35,-6.453 0,-3.883 2.933,-6.452 6.35,-6.452 3.382,0 6.315,2.569 6.315,6.452 0,3.883 -2.933,6.453 -6.315,6.453 z m 0,-11.784 c -2.794,0 -4.969,2.191 -4.969,5.331 0,2.934 1.897,5.332 4.969,5.332 2.761,0 4.935,-2.174 4.935,-5.332 0,-3.14 -2.174,-5.331 -4.935,-5.331 z m 1.001,5.884 2.002,3.14 h -1.329 l -1.846,-3.053 h -1.104 v 3.053 h -1.174 v -7.142 h 2.709 c 1.726,0 2.604,0.604 2.604,2.053 10e-4,1.292 -0.791,1.829 -1.862,1.949 z m -0.862,-3.003 h -1.415 v 2.089 h 1.312 c 0.88,0 1.656,-0.087 1.656,-1.123 0,-0.862 -0.847,-0.966 -1.553,-0.966 z m -71.81,-72.665 c -9.573,-0.518 -13.575,-7.804 -15.386,-10.908 -1.812,-3.105 -55.51,-104.37799519 -55.51,-104.37799519 h 26.714 l 44.471,82.55700019 c 2.319,4.658 7.59,5.805 10.437,0.371 2.328,-4.398 44.242,-82.92800019 44.242,-82.92800019 h 16.688 c 0,0 -52.007,98.45300019 -54.077,101.81599519 -2.072,3.364 -8.005,13.988 -17.579,13.47 z m -65.61,60.985 -7.889,21.388 c -1.453,3.651 -2.512,6.948 -7.183,6.948 -1.059,0 -2.079,-0.079 -3.1,-0.236 v -3.769 c 0.706,0.118 1.413,0.274 2.119,0.274 2.08,0 2.59,-1.097 3.139,-2.824 l 0.51,-1.57 -7.692,-20.211 h 4.906 l 5.298,15.149 h 0.078 l 5.142,-15.149 z m -74.39,-144.987995 v 52.439 c 0,19.173995 -8.632,31.136995 -32.558,31.136995 h -51.396 v -14.178 h 44.842 c 9.177,0 14.66,-7.453995 14.66,-16.957995 v -52.44 c 0,-16.715 8.118,-31.13600019 31.88,-31.13600019 h 51.043 V 14.609075 h -44.161 c -11.928,-0.516 -14.31,9.254 -14.31,16.956 z m -100.895003,32.447 h -55 c -7.539,0 -13.11,5.736 -13.11,15.568 V 115.30307 H -0.01968287 V 80.891075 c 0,-19.337 12.12699987,-32.366 29.33299987,-32.366 h 55.638 c 13.644,-0.519 16.898003,-7.291 16.898003,-17.124 0,-7.538 -3.771003,-17.829 -16.898003,-16.793 H -0.01968287 V 0.43007481 H 91.834317 c 24.089003,0 33.594003,13.92800019 33.594003,30.97200019 0,19.337 -9.505,32.61 -33.594003,32.61 z M 213.74832,177.49507 c 0,3.453 -1.531,8.635 -9.537,8.595 h -7.457 v 10.755 h -4.905 v -28.022 h 12.362 c 8.006,-0.001 9.537,5.179 9.537,8.672 z m -16.994,-4.669 v 9.262 h 7.182 c 2.198,0 4.906,-1.1 4.906,-4.632 0,-3.689 -2.237,-4.63 -4.827,-4.63 z m 25.43,24.018 h -4.474 v -28.022 h 4.474 z m 11.773,-11.695 c 3.218,-0.59 6.083,-0.237 6.083,-2.865 0,-2.316 -2.394,-2.747 -4.2,-2.747 -2.512,0 -4.278,1.021 -4.474,3.218 h -4.474 c 0.313,-5.221 4.749,-6.751 9.222,-6.751 3.964,0 8.125,1.61 8.125,5.888 v 10.439 c 0,1.097 0.235,1.53 1.059,1.53 0.275,0 0.628,0 1.099,-0.08 v 3.101 c -0.667,0.236 -2.079,0.51 -2.826,0.51 -1.804,0 -3.1,-0.627 -3.453,-2.471 -1.767,1.728 -4.631,2.471 -7.024,2.471 -3.65,0 -6.947,-1.961 -6.947,-5.925 0,-5.063 4.042,-5.887 7.81,-6.318 z m 0.785,8.712 c 1.962,0 5.023,-1.021 5.023,-3.848 v -3.334 c -1.374,0.903 -3.532,0.863 -5.495,1.216 -1.923,0.314 -3.649,1.021 -3.649,3.374 0.001,2.002 2.551,2.592 4.121,2.592 z m 46.032,-0.354 c 4.317,0 5.926,-2.12 5.926,-4.238 0,-2.159 -1.177,-3.023 -2.315,-3.454 -1.962,-0.746 -4.513,-1.256 -8.359,-2.315 -4.788,-1.296 -6.2,-4.198 -6.2,-7.104 0,-5.61 5.18,-8.241 10.243,-8.241 5.848,0 10.753,3.101 10.753,8.948 h -4.906 c -0.235,-3.611 -2.669,-4.945 -6.044,-4.945 -2.276,0 -5.141,0.824 -5.141,3.65 0,1.962 1.334,3.06 3.336,3.609 0.431,0.119 6.632,1.727 8.083,2.16 3.689,1.098 5.456,4.237 5.456,7.142 0,6.279 -5.573,8.791 -11.146,8.791 -6.397,0 -11.577,-3.061 -11.695,-10.008 h 4.905 c 10e-4,4.317 3.18,6.005 7.104,6.005 z m 16.011,-23.038 h 4.475 v 6.084 h 4.041 v 3.336 h -4.041 v 10.832 c 0,1.845 0.156,2.786 2.157,2.786 0.628,0 1.257,0 1.884,-0.157 v 3.454 c -0.981,0.077 -1.923,0.234 -2.904,0.234 -4.67,0 -5.534,-1.805 -5.612,-5.18 v -11.97 h -3.375 v -3.336 h 3.375 z m 18.641,14.68 c 3.218,-0.59 6.083,-0.237 6.083,-2.865 0,-2.316 -2.394,-2.747 -4.199,-2.747 -2.512,0 -4.278,1.021 -4.475,3.218 h -4.474 c 0.314,-5.221 4.749,-6.751 9.223,-6.751 3.964,0 8.124,1.61 8.124,5.888 v 10.439 c 0,1.097 0.234,1.53 1.06,1.53 0.275,0 0.627,0 1.099,-0.08 v 3.101 c -0.667,0.236 -2.08,0.51 -2.825,0.51 -1.806,0 -3.101,-0.627 -3.455,-2.471 -1.765,1.728 -4.63,2.471 -7.024,2.471 -3.65,0 -6.946,-1.961 -6.946,-5.925 -0.001,-5.063 4.041,-5.887 7.809,-6.318 z m 0.784,8.712 c 1.962,0 5.023,-1.021 5.023,-3.848 v -3.334 c -1.374,0.903 -3.531,0.863 -5.494,1.216 -1.922,0.314 -3.649,1.021 -3.649,3.374 0,2.002 2.55,2.592 4.12,2.592 z m 15.854,-23.392 h 4.474 v 6.084 h 4.042 v 3.336 h -4.042 v 10.832 c 0,1.845 0.157,2.786 2.158,2.786 0.628,0 1.256,0 1.885,-0.157 v 3.454 c -0.981,0.077 -1.923,0.234 -2.905,0.234 -4.67,0 -5.533,-1.805 -5.612,-5.18 v -11.97 h -3.375 v -3.336 h 3.375 z m 16.522,2.591 h -4.474 v -4.238 h 4.474 z m 0,23.784 h -4.474 v -20.291 h 4.474 z m 14.363,-20.841 c 6.515,0 10.242,4.475 10.242,10.676 0,6.238 -3.728,10.712 -10.242,10.712 -6.514,0 -10.242,-4.474 -10.242,-10.712 0,-6.201 3.728,-10.676 10.242,-10.676 z m 0,17.858 c 4.004,0 5.769,-3.651 5.769,-7.182 0,-3.494 -1.765,-7.143 -5.769,-7.143 -4.003,0 -5.769,3.648 -5.769,7.143 0.001,3.53 1.766,7.182 5.769,7.182 z m 18.405,-14.324 0.078,0.077 c 1.334,-2.236 3.65,-3.61 6.318,-3.61 4.396,0 7.182,2.354 7.182,6.908 v 13.933 h -4.473 v -12.757 c -0.079,-3.177 -1.336,-4.551 -3.964,-4.551 -2.983,0 -4.906,2.354 -4.906,5.337 v 11.971 h -4.475 v -20.291 h 4.239 v 2.983 z m 60.638,-6.477 h -4.474 v -4.238 h 4.474 z m 0,23.784 h -4.474 v -20.291 h 4.474 z"
   id="path1"
   style="display:none" />
<style
   id="style1">.st0{fill:#a09d9e}.st1{fill:#231f20}.st2{fill:#cf181f}</style><style
   id="style1-6">.st0{fill:#a09d9e}.st1{fill:#231f20}.st2{fill:#cf181f}</style><g
   style="fill:#000000"
   id="g7"
   transform="matrix(26.689374,0,0,35.740045,-75.245821,-470.34626)"><path
     d="m 8.063,15.555 c 0.572,-0.005 1.034,-0.47 1.034,-1.043 0,-0.573 -0.462,-1.038 -1.033,-1.043 H 1.05 C 1.025,13.468 1.005,13.448 1.005,13.422 c 0,0 0,0 0,0 v 0 -0.595 c 0,0 0,0 0,0 0,-0.025 0.02,-0.045 0.045,-0.045 0,0 0,0 0,0 h 7.689 c 0.934,0.026 1.682,0.79 1.682,1.729 0,0.939 -0.747,1.702 -1.68,1.729 H 8.739 3.42 c -0.575,0 -1.041,0.466 -1.041,1.041 0,0 0,0.001 0,0.001 v 0 1.891 c 0,0.025 -0.02,0.045 -0.045,0.045 0,0 0,0 0,0 H 1.051 c 0,0 0,0 0,0 -0.025,0 -0.045,-0.02 -0.045,-0.045 0,-0.002 0,-0.003 0,-0.005 v 0 -1.891 c 0.004,-0.952 0.776,-1.722 1.728,-1.722 10e-4,0 10e-4,0 0.002,0 v 0 z m 13.554,-0.358 v -2.37 c 0,-0.025 0.02,-0.045 0.045,-0.045 h 9.132 c 0.025,0 0.046,0.02 0.047,0.045 v 0.595 c -0.001,0.025 -0.021,0.046 -0.047,0.047 h -7.759 c -0.025,0 -0.045,0.02 -0.045,0.045 0,0 0,0 0,0 v 0 1.544 c 0,10e-4 0,0.002 0,0.003 0,0.273 0.221,0.494 0.494,0.494 0,0 10e-4,0 10e-4,0 h 5.777 c 0.969,0.052 1.734,0.851 1.734,1.828 0,0.977 -0.766,1.775 -1.73,1.827 h -0.005 -7.599 c 0,0 0,0 0,0 -0.025,0 -0.045,-0.02 -0.045,-0.045 0,0 0,0 0,0 v 0 -0.592 c 0,-0.025 0.02,-0.045 0.045,-0.045 h 6.911 c 0.01,0 0.022,0 0.034,0 0.632,0 1.145,-0.512 1.145,-1.145 0,-0.633 -0.512,-1.145 -1.145,-1.145 -0.015,0 -0.03,0 -0.045,0.001 h 0.002 -5.907 c -0.575,0 -1.041,-0.466 -1.041,-1.041 0,0 0,-0.001 0,-0.001 v 0 z m -7.554,4.013 c 0.954,0 1.728,-0.774 1.728,-1.728 v 0 -2.972 c 0,-0.575 0.466,-1.041 1.041,-1.041 0,0 10e-4,0 10e-4,0 h 3.354 c 0.025,-10e-4 0.045,-0.021 0.045,-0.047 0,0 0,0 0,0 v 0 -0.595 c 0,-0.025 -0.02,-0.045 -0.045,-0.045 h -4.041 c 0,0 -0.001,0 -0.001,0 -0.954,0 -1.728,0.774 -1.728,1.728 v 0 2.975 c 0,0.575 -0.466,1.042 -1.041,1.042 h -3.307 c -0.025,0 -0.045,0.02 -0.045,0.045 v 0 0.595 c 0,0.025 0.02,0.045 0.045,0.045 0,0 0,0 0,0 v 0 z"
     id="path1-1" /></g></svg>
