<?xml version="1.0" encoding="UTF-8" standalone="no"?>
<!-- Generator: Adobe Illustrator 15.1.0, SVG Export Plug-In  -->

<svg
   version="1.1"
   x="0px"
   y="0px"
   width="800"
   height="230"
   viewBox="-48.423 -13.517 800 230"
   enable-background="new -48.423 -13.517 800 230"
   xml:space="preserve"
   id="svg1"
   xmlns="http://www.w3.org/2000/svg"
   xmlns:svg="http://www.w3.org/2000/svg">
<defs
   id="defs1" />
<path
   fill-rule="evenodd"
   clip-rule="evenodd"
   d="m 773.65924,210.00665 v -12.08826 h -0.0459 l -2.73629,12.08826 h -1.24439 l -2.73742,-12.08826 h -0.0424 v 12.08826 h -1.66949 v -15.47017 h 2.58046 l 2.5117,10.96413 2.49336,-10.96413 h 2.55524 v 15.47017 z m -13.14519,0 h -1.77833 v -13.02857 h -2.80048 v -2.4416 h 7.38155 v 2.4416 h -2.80274 z m -57.2329,-44.64793 -84.24856,-0.0503 -14.54313,47.01795 h -19.15747 c 0,0 59.70449,-190.850114 62.08213,-197.368242 2.3765,-6.5219949 9.18741,-27.115328 20.17957,-26.113134 10.98983,1.002193 15.58468,15.1277024 17.66556,21.1466668 2.07742,6.0189642 63.7264,202.3347092 63.7264,202.3347092 H 718.317 Z M 667.26023,52.292728 c -2.66294,-9.029413 -8.7119,-11.252428 -11.97984,-0.721656 -1.36243,4.347352 -27.11881,86.049338 -27.11881,86.049338 l 66.41914,0.01 z M 559.38078,15.718475 559.47822,210.33554 H 532.08095 V 15.927424 L 480.07313,15.790056 V -11.24014 l 131.61225,-0.14898 -0.0596,27.343628 z M 488.68302,346.90471 c 3.6862,-1.14151 6.9702,-0.45856 6.9702,-5.54305 0,-4.48082 -2.74316,-5.3147 -4.81257,-5.3147 -2.87723,0 -4.89963,1.97535 -5.12652,6.22598 h -5.12652 c 0.35864,-10.10127 5.44163,-13.0614 10.56702,-13.0614 4.54215,0 9.30888,3.11492 9.30888,11.39172 v 20.19672 c 0,2.12239 0.27042,2.96014 1.21574,2.96014 0.31397,0 0.7196,0 1.25814,-0.15486 v 5.9996 c -0.76427,0.45661 -2.38106,0.98672 -3.23589,0.98672 -2.0694,0 -3.55443,-1.21306 -3.95889,-4.78073 -2.02358,3.34324 -5.30529,4.78073 -8.0473,4.78073 -4.18352,0 -7.95908,-3.79402 -7.95908,-11.46333 -10e-4,-9.79552 4.63039,-11.38977 8.94679,-12.22365 z m 0.89949,16.85541 c 2.24702,0 5.75446,-1.97537 5.75446,-7.44489 v -6.45039 c -1.57325,1.74706 -4.04599,1.66967 -6.29643,2.35264 -2.20233,0.60751 -4.18006,1.97537 -4.18006,6.52779 0,3.87334 2.9242,5.01485 4.72203,5.01485 z m -22.25811,-3.87334 v -23.15881 h -3.8684 v -6.45427 h 3.8684 v -11.77092 h 5.12653 v 11.77092 h 4.63267 v 6.45427 h -4.63267 v 20.95709 c 0,3.56958 0.17875,5.39014 2.47389,5.39014 0.71845,0 1.43802,0 2.15878,-0.30373 v 6.68257 c -1.12523,0.14884 -2.20463,0.45275 -3.32755,0.45275 -5.35342,0.002 -6.34229,-3.49027 -6.43165,-10.02001 z M 434.39498,-10.019321 h 27.85904 V 211.59696 h -27.85904 z m 3.70108,368.238361 8.22949,-42.9028 h 5.70978 l -10.97152,54.2152 h -6.25061 l -10.70337,-54.2152 h 5.84725 l 8.04961,42.9028 z m -21.17647,11.87736 c -4.25106,0 -7.27612,-5.37473 -7.27612,-12.48487 0,-7.51259 3.36076,-12.48292 7.27612,-12.48292 3.8753,0 7.23606,4.97033 7.23606,12.48292 0,7.51259 -3.36076,12.48487 -7.23606,12.48487 z m 0,-22.79895 c -3.20148,0 -5.6937,4.23901 -5.6937,10.31408 0,5.67652 2.17367,10.31599 5.6937,10.31599 3.16372,0 5.65479,-4.20612 5.65479,-10.31599 0,-6.07507 -2.49107,-10.31408 -5.65479,-10.31408 z m 1.14701,11.38397 2.29399,6.07509 h -1.52282 l -2.11526,-5.90673 h -1.26501 v 5.90673 h -1.34521 v -13.81788 h 3.10409 c 1.97774,0 2.98381,1.16858 2.98381,3.97199 10e-4,2.49969 -0.90638,3.53863 -2.13359,3.7708 z m -0.98771,-5.81 h -1.62139 v 4.04167 h 1.50336 c 1.00835,0 1.89752,-0.16828 1.89752,-2.17271 0,-1.66773 -0.97053,-1.86896 -1.77949,-1.86896 z M 334.79542,212.28379 c -10.96921,-1.00218 -15.55489,-15.09866 -17.63003,-21.10407 -2.07629,-6.00736 -63.60611,-201.943915 -63.60611,-201.943915 h 30.61023 l 50.95707,159.726025 c 2.65724,9.01199 8.69701,11.23114 11.95923,0.71778 2.66754,-8.50897 50.69469,-160.443805 50.69469,-160.443805 h 19.12191 c 0,0 -59.59218,190.480585 -61.96411,196.987115 -2.37418,6.50845 -9.1725,27.06306 -20.14288,26.06087 z m -75.17917,117.98991 -9.03961,41.38015 c -1.66492,7.06371 -2.87837,13.44254 -8.23064,13.44254 -1.21346,0 -2.38223,-0.15264 -3.55215,-0.45662 v -7.29201 c 0.80899,0.22829 1.6191,0.53013 2.42806,0.53013 2.38337,0 2.96775,-2.12241 3.59683,-5.46369 l 0.5844,-3.03754 -8.81391,-39.10296 h 5.62156 l 6.0707,29.30931 h 0.0894 l 5.89196,-29.30931 z M 174.3765,49.760156 V 151.21579 c 0,37.09663 -9.89097,60.24189 -37.30657,60.24189 H 78.177846 v -27.43069 h 51.382184 c 10.51548,0 16.79817,-14.42152 16.79817,-32.80926 V 49.760156 c 0,-32.339112 9.302,-60.239943 36.52965,-60.239943 h 58.48761 V 16.954771 H 190.77361 C 177.1059,15.956447 174.3765,34.858822 174.3765,49.760156 Z M 58.766008,112.53655 H -4.2557142 c -8.6385608,0 -15.0220878,11.09764 -15.0220878,30.11997 v 69.11458 h -27.207051 v -66.57815 c 0,-37.41199 13.895718,-62.619663 33.611204,-62.619663 h 63.752778 c 15.63397,-1.004131 19.362564,-14.106162 19.362564,-33.130424 0,-14.584041 -4.320999,-34.494414 -19.362564,-32.490027 H -46.484853 V -10.477853 H 58.766008 c 27.60237,0 38.493668,26.947007 38.493668,59.92265 0,37.411993 -10.891298,63.091753 -38.493668,63.091753 z M 198.46111,332.09623 c 0,6.68063 -1.7543,16.70646 -10.92797,16.62906 h -8.5446 v 20.80809 h -5.62038 v -54.2152 h 14.16498 c 9.17367,-0.002 10.92797,10.02002 10.92797,16.77805 z m -19.47257,-9.0333 v 17.91952 h 8.22949 c 2.51858,0 5.62155,-2.12822 5.62155,-8.96168 0,-7.13723 -2.56329,-8.95784 -5.53101,-8.95784 z m 29.13897,46.46851 h -5.12656 v -54.2152 h 5.12656 z m 13.49007,-22.62673 c 3.68736,-1.14151 6.97021,-0.45856 6.97021,-5.54305 0,-4.48082 -2.74316,-5.3147 -4.81257,-5.3147 -2.87839,0 -4.90194,1.97535 -5.12653,6.22598 h -5.12654 c 0.35866,-10.10127 5.44166,-13.0614 10.56703,-13.0614 4.54214,0 9.31003,3.11492 9.31003,11.39172 v 20.19672 c 0,2.12239 0.26928,2.96014 1.21345,2.96014 0.31511,0 0.7196,0 1.25928,-0.15486 v 5.9996 c -0.76427,0.45661 -2.38221,0.98672 -3.23816,0.98672 -2.06712,0 -3.55215,-1.21306 -3.95662,-4.78073 -2.02471,3.34324 -5.30644,4.78073 -8.04844,4.78073 -4.18236,0 -7.96022,-3.79402 -7.96022,-11.46333 0,-9.79552 4.63152,-11.38977 8.94908,-12.22365 z m 0.89949,16.85541 c 2.24815,0 5.75561,-1.97537 5.75561,-7.44489 v -6.45039 c -1.5744,1.74706 -4.04714,1.66967 -6.29644,2.35264 -2.20348,0.60751 -4.18122,1.97537 -4.18122,6.52779 0.001,3.87334 2.92307,5.01485 4.72205,5.01485 z m 52.74576,-0.68492 c 4.94662,0 6.79029,-4.1016 6.79029,-8.1994 0,-4.17711 -1.34867,-5.84872 -2.65264,-6.68257 -2.24815,-1.44331 -5.17121,-2.43003 -9.57814,-4.47892 -5.48633,-2.50743 -7.10427,-8.12203 -7.10427,-13.74437 0,-10.85385 5.93549,-15.94415 11.73693,-15.94415 6.70093,0 12.32132,5.99962 12.32132,17.312 h -5.62155 c -0.26927,-6.98632 -3.05828,-9.56727 -6.9255,-9.56727 -2.60794,0 -5.89081,1.59423 -5.89081,7.0618 0,3.79594 1.52856,5.92029 3.82254,6.98247 0.49387,0.23021 7.59927,3.34128 9.26191,4.17901 4.22704,2.12435 6.25176,8.19747 6.25176,13.81789 0,12.14822 -6.38583,17.00828 -12.77164,17.00828 -7.33002,0 -13.26551,-5.92223 -13.40071,-19.36285 h 5.6204 c 10e-4,8.35226 3.64377,11.61808 8.14011,11.61808 z m 18.3462,-44.57242 h 5.12767 v 11.77092 h 4.63036 v 6.45427 h -4.63036 v 20.95709 c 0,3.56958 0.17875,5.39014 2.47159,5.39014 0.7196,0 1.44036,0 2.15877,-0.30373 v 6.68257 c -1.12408,0.14884 -2.20344,0.45275 -3.32752,0.45275 -5.35115,0 -6.34114,-3.49221 -6.43051,-10.02196 v -23.15879 h -3.86726 v -6.45428 h 3.86726 z m 21.35977,28.40193 c 3.68734,-1.14151 6.97021,-0.45856 6.97021,-5.54305 0,-4.48082 -2.74317,-5.3147 -4.81141,-5.3147 -2.87841,0 -4.90197,1.97535 -5.12769,6.22598 h -5.12654 c 0.35981,-10.10127 5.44165,-13.0614 10.56818,-13.0614 4.54213,0 9.30886,3.11492 9.30886,11.39172 v 20.19672 c 0,2.12239 0.26814,2.96014 1.21462,2.96014 0.3151,0 0.71844,0 1.25928,-0.15486 v 5.9996 c -0.76429,0.45661 -2.38336,0.98672 -3.23702,0.98672 -2.06941,0 -3.55329,-1.21306 -3.95891,-4.78073 -2.02243,3.34324 -5.30529,4.78073 -8.04845,4.78073 -4.18236,0 -7.95907,-3.79402 -7.95907,-11.46333 -0.001,-9.79552 4.63037,-11.38977 8.94794,-12.22365 z m 0.89834,16.85541 c 2.24816,0 5.75561,-1.97537 5.75561,-7.44489 v -6.45039 c -1.5744,1.74706 -4.04598,1.66967 -6.29532,2.35264 -2.2023,0.60751 -4.18119,1.97537 -4.18119,6.52779 0,3.87334 2.92192,5.01485 4.7209,5.01485 z m 18.1663,-45.25734 h 5.12652 v 11.77092 h 4.63152 v 6.45427 h -4.63152 v 20.95709 c 0,3.56958 0.17991,5.39014 2.47277,5.39014 0.71959,0 1.43918,0 2.15991,-0.30373 v 6.68257 c -1.12407,0.14884 -2.20347,0.45275 -3.32869,0.45275 -5.35111,0 -6.33998,-3.49221 -6.43051,-10.02196 v -23.15879 h -3.86723 v -6.45428 h 3.86723 z m 18.93171,5.01289 h -5.12651 v -8.19943 h 5.12651 z m 0,46.01577 h -5.12651 V 330.2737 h 5.12651 z m 16.45784,-40.32183 c 7.46523,0 11.73581,8.6579 11.73581,20.65523 0,12.0689 -4.27174,20.72491 -11.73581,20.72491 -7.46405,0 -11.73577,-8.65601 -11.73577,-20.72491 0,-11.99733 4.27172,-20.65523 11.73577,-20.65523 z m 0,34.55051 c 4.58799,0 6.61043,-7.06372 6.61043,-13.89528 0,-6.75996 -2.02244,-13.81984 -6.61043,-13.81984 -4.5868,0 -6.6104,7.05793 -6.6104,13.81984 10e-4,6.82964 2.0236,13.89528 6.6104,13.89528 z m 21.08939,-27.71316 0.0894,0.14885 c 1.52856,-4.32609 4.18235,-6.98441 7.23947,-6.98441 5.03715,0 8.22948,4.55438 8.22948,13.36517 v 26.95669 h -5.12537 V 344.8519 c -0.0906,-6.14665 -1.53084,-8.80497 -4.54212,-8.80497 -3.41809,0 -5.62155,4.55434 -5.62155,10.32567 v 23.16075 h -5.12768 v -39.25773 h 4.85726 v 5.77131 z m 69.48201,-12.53129 h -5.12653 v -8.19943 h 5.12653 z m 0,46.01577 h -5.12653 V 330.2737 h 5.12653 z"
   id="path1"
   style="stroke-width:1.4889" />
</svg>
