<?xml version="1.0" encoding="UTF-8" standalone="no"?>
<!-- Generator: Adobe Illustrator 15.1.0, SVG Export Plug-In  -->

<svg
   version="1.1"
   x="0px"
   y="0px"
   width="799.99927"
   height="230.75797"
   viewBox="-48.423 -13.517 799.99927 230.75797"
   enable-background="new -48.423 -13.517 800 230"
   xml:space="preserve"
   id="svg1"
   xmlns="http://www.w3.org/2000/svg"
   xmlns:svg="http://www.w3.org/2000/svg">
<defs
   id="defs1"><style
     type="text/css"
     id="style6">
   
    .fil0 {fill:#02ABCA}
    .fil1 {fill:#8B8B8B;fill-rule:nonzero}
   
  </style></defs>

<style
   id="style1">.st0{fill:#a09d9e}.st1{fill:#231f20}.st2{fill:#cf181f}</style><style
   id="style1-6">.st0{fill:#a09d9e}.st1{fill:#231f20}.st2{fill:#cf181f}</style><style
   id="style1-7">.st0{fill:#a09d9e}.st1{fill:#231f20}.st2{fill:#cf181f}</style><path
   d="m 0.39815182,272.65008 30.74206418,22.386 H 43.312204 V 261.62541 H 30.672066 v 21.9652 L 0.24210333,261.62541 H -12.241983 v 33.41067 H 0.39815182 Z M 302.98118,261.54124 h -52.5892 v 7.06925 h 19.81849 v 26.42559 h 13.2643 v -26.34141 h 19.35036 z m -3.74521,113.61313 h 26.0605 v -63.1184 h -26.0605 z m -135.9205,-102.50429 30.74207,22.386 h 12.17197 v -33.41067 h -12.64013 v 21.9652 l -30.42996,-21.9652 h -12.48409 v 33.41067 h 12.64014 z m 58.83126,85.16778 -24.81212,-45.78189 h -20.75479 l -24.65607,45.61354 -22.47137,-45.61354 h -25.43632 l 33.08284,63.1184 h 28.08919 l 21.84714,-41.57399 21.6911,41.57399 h 28.24524 l 33.2389,-63.1184 H 244.77413 Z M 36.289901,336.86255 c -16.853515,-1.51486 -27.7770931,-3.19801 -27.7770931,-7.40589 0,-4.88116 12.1719861,-6.81679 28.4012971,-6.81679 15.13695,0 30.429963,3.11382 35.735697,4.37619 l 8.270706,-10.94051 c -5.929939,-1.26238 -24.500018,-4.88116 -45.254808,-4.88116 -25.280282,0 -52.12106,6.64847 -52.12106,18.93554 0,10.01476 13.1082903,15.06423 46.659269,18.17811 23.563709,2.18806 36.671999,3.36631 36.359902,8.92072 -0.156053,3.02965 -4.525484,8.07915 -31.210214,8.07915 -21.378995,0 -36.5159542,-4.20789 -41.8216848,-5.89105 l -11.0796302,10.77217 c 5.929943,1.68317 25.7484245,6.64851 51.184753,6.64851 37.140152,0 56.802591,-6.98515 56.802591,-20.11373 0.156048,-7.57423 -4.681533,-15.48508 -54.149725,-19.86126 M 104.01606,261.54124 H 90.283571 v 33.41067 h 13.732489 z m 399.49078,33.41067 v -33.41067 h -12.48411 v 21.96523 l -30.42998,-21.96523 h -12.48407 v 33.41067 h 12.64015 v -22.38599 l 30.74205,22.38599 z m -106.895,-6.1435 h -35.57967 v -7.82668 h 32.92678 v -6.05938 h -32.92678 v -7.23757 h 35.57967 v -6.14354 h -48.21979 v 33.41067 h 48.21979 z m 289.94288,-28.36122 c -18.258,0 -33.08283,7.99503 -33.08283,17.84147 0,9.84648 14.82483,17.84148 33.08283,17.84148 18.25796,0 33.0828,-7.995 33.0828,-17.84148 0,-9.84644 -14.82484,-17.84147 -33.0828,-17.84147 m 0,28.27705 c -10.61148,0 -19.19427,-4.62869 -19.19427,-10.43558 0,-5.72274 8.58279,-10.43557 19.19427,-10.43557 10.61146,0 19.19428,4.62868 19.19428,10.43557 0.15607,5.72273 -8.58282,10.43558 -19.19428,10.43558 m 4.21339,48.22246 H 636.1502 v -24.82658 h -24.18791 v 63.1184 h 24.18791 v -25.16317 h 54.61791 v 25.16317 h 24.18788 v -63.1184 H 690.76811 Z M 353.69777,325.50121 h 37.29622 v 49.73731 h 25.12422 v -49.73731 h 36.51596 v -13.38109 h -98.9364 z m 180.39505,-1.43067 c 13.26435,0 25.43633,3.78712 32.14651,9.76233 l 19.03823,-8.92074 c -11.70384,-9.34153 -30.8981,-14.89594 -51.80894,-14.89594 -34.33124,0 -62.42043,15.06426 -62.42043,33.66313 0,18.59892 28.08919,33.66315 62.42043,33.66315 20.91084,0 40.26117,-5.5544 51.80894,-14.89592 l -19.03823,-8.92078 c -6.55412,5.9752 -18.88216,9.76235 -32.14651,9.76235 -20.44268,0 -37.14016,-8.83656 -37.14016,-19.6088 0,-10.77219 16.69748,-19.60878 37.14016,-19.60878 m 47.43953,-62.5293 h -25.59238 v 33.41067 h 25.59238 c 17.63376,0 31.8344,-7.49005 31.8344,-16.74739 0,-9.25737 -14.20064,-16.66328 -31.8344,-16.66328 m 0.6242,26.42558 h -13.57644 v -19.35633 h 13.57644 c 9.98727,0 17.94588,4.37622 17.94588,9.67817 0.15606,5.3861 -7.95861,9.67816 -17.94588,9.67816 M 149.89509,-10.036189 H 58.605202 c -59.14335566,0 -107.051032,25.836467 -107.051032,57.732301 V 157.43796 c 0,31.89584 47.90767634,57.73232 107.051032,57.73232 h 91.289888 c 1.71656,0 3.12101,-0.75744 3.12101,-1.68318 V -8.3530301 c 0,-0.9257363 -1.24841,-1.6831589 -3.12101,-1.6831589 z M 119.30908,197.07634 H 58.605202 c -19.662427,0 -38.076452,-4.12374 -51.9649997,-11.61381 C -7.2483496,177.97248 -14.894851,168.04185 -14.894851,157.43796 V 47.780267 c 0,-10.603891 7.6465014,-20.534523 21.5350533,-28.02457 C 20.52875,12.265648 38.942775,8.1419121 58.605202,8.1419121 H 119.30908 Z M 55.796287,36.418951 c 21.691101,0 39.324869,9.509844 39.324869,21.207785 0,11.697944 -17.47772,21.123626 -39.324869,21.123626 -21.691097,0 -39.168817,-9.509839 -39.168817,-21.20778 0,-11.613787 17.633768,-21.123631 39.168817,-21.123631 z m 206.299533,-46.45514 h -64.60515 c -1.56051,0 -2.65288,0.6732642 -2.65288,1.514842 V 213.65543 c 0,0.92573 1.40446,1.68314 2.96498,1.68314 h 64.29305 c 59.14332,0 107.05102,-25.83646 107.05102,-57.73228 V 47.780267 C 369.30289,15.884437 321.23915,-9.9520301 262.09582,-10.036189 Z M 277.3888,136.65097 c -23.40768,0 -42.28982,-10.18311 -42.28982,-22.80678 0,-12.53952 18.88214,-22.806776 42.28982,-22.806776 23.25162,0 42.28987,10.183096 42.28987,22.806776 0,12.62367 -18.88221,22.80678 -42.28987,22.80678 z m 162.29313,78.60345 V 176.5418 c 7.49045,-3.28215 35.42359,-16.32663 65.07329,-30.04435 26.68474,-12.37121 53.36947,-24.82656 80.52234,-36.86115 20.44273,-9.08905 59.45548,-25.75231 60.54781,-42.078936 1.40446,-19.187993 -23.8758,-31.643358 -61.48409,-31.643358 -22.47135,0 -48.844,6.732631 -64.91727,14.054366 -16.07326,7.321733 -36.51592,16.831572 -36.51592,16.831572 L 423.76471,32.211062 c 50.24846,-30.3809893 104.24213,-45.697723 160.42051,-45.697723 119.8472,-1.598999 210.20077,70.440135 119.06695,126.910071 -33.08279,19.69294 -70.69114,38.1235 -109.23572,54.45015 h 156.51919 v 47.38086 z"
   fill="#e60012"
   id="path1"
   style="fill:#000000;stroke-width:1.146" /></svg>
