<svg xmlns="http://www.w3.org/2000/svg" height="800" width="1200" version="1.0" viewBox="-24.374175 -6.928225 211.24285 41.56935"><g font-weight="400" font-family="Bitstream Vera Sans"><path style="line-height:125%;text-align:start" d="M106.043 14.664v-2.6678h3.0489c2.2141 0 3.8021-.4537 4.764-1.3611.9619-.9074 1.4428-2.0145 1.4428-3.3212 0-1.4277-.5354-2.562-1.6061-3.4029-1.0708-.8408-2.4108-1.2613-4.02-1.2613-2.9884 0-5.0574 1.4459-6.2068 4.3375h-3.0308C102.1652 2.3291 105.3472 0 109.9812 0c2.6013 0 4.7035.6927 6.3066 2.078 1.6031 1.3854 2.4047 3.052 2.4047 5 0 1.5124-.484 2.8311-1.4519 3.9564-.968 1.1252-2.202 1.833-3.7023 2.1233 1.6939.242 3.1488.9498 4.3647 2.1234 1.216 1.1736 1.824 2.692 1.824 4.5553 0 2.2141-.9045 4.0804-2.7132 5.5988-1.8089 1.5185-4.2922 2.2777-7.45 2.2777-2.4925 0-4.628-.5929-6.4065-1.7786-1.7786-1.1857-3.4175-4.5895-3.7023-7.779h3.1216c.5388 4.163 3.2546 6.8535 6.9327 6.8535 2.3956 0 4.1167-.5112 5.1633-1.5336 1.0465-1.0224 1.5698-2.2413 1.5698-3.657 0-1.5365-.6261-2.7797-1.8783-3.7295-1.2523-.9497-3.0097-1.4246-5.2722-1.4246zm33.7916-7.8583h-3.049c-1.0284-2.698-2.9038-4.0471-5.626-4.0471-4.997 0-7.5499 3.3718-7.6587 11.466.7622-1.6454 1.8783-2.9158 3.3484-3.8111 1.47-.8954 3.0217-1.343 4.655-1.343 2.4683 0 4.5372.862 6.2069 2.5861 1.6697 1.7242 2.5045 4.4654 2.5045 6.8731 0 2.4924-.8863 4.646-2.6588 6.461-1.7725 1.8148-4.044 2.7222-6.8147 2.7222-3.158 0-5.6685-1.1857-7.5317-3.5571-1.8633-2.3714-2.7949-5.6019-2.7949-9.6914 0-3.9926.8802-7.4015 2.6406-10.2267C124.8166 1.4126 127.548 0 131.2503 0c4.2468 0 7.1082 2.2686 8.5843 6.8057zm-9.165 18.2394c1.8874 0 3.433-.6231 4.637-1.8693 1.2038-1.2463 1.8057-2.7405 1.8057-4.4827 0-1.7181-.5868-3.8665-1.7604-5.0946-1.1736-1.228-2.6316-1.842-4.3738-1.842-1.8028 0-3.3726.6443-4.7096 1.9328-1.337 1.2886-2.0054 3.4732-2.0054 5.2034 0 1.597.5989 3.0217 1.7967 4.274 1.1978 1.2522 2.7344 1.8784 4.6098 1.8784zm21.5528 2.6678c-3.1942 0-5.7077-1.3309-7.5407-3.9927-1.833-2.6618-2.7495-5.9648-2.7495-9.9091 0-3.8717.8711-7.1415 2.6133-9.8093C146.2878 1.3339 148.8165 0 152.1317 0c3.4603 0 6.0525 1.3914 7.7766 4.1742s2.5862 6.0495 2.5862 9.8002c0 3.666-.8863 6.8723-2.6587 9.6188-1.7726 2.7465-4.3104 4.1197-7.6134 4.1197zm.0182-2.6134c2.3835 0 4.1167-1.0193 5.1996-3.058 1.0828-2.0387 1.6243-4.5946 1.6243-7.6678 0-3.3756-.5536-6.1826-1.6606-8.421-1.107-2.2383-2.8766-3.3574-5.3085-3.3574-2.3593 0-4.0804 1.0223-5.1633 3.067-1.0828 2.0448-1.6243 4.7308-1.6243 8.058 0 3.4604.5717 6.222 1.715 8.2849 1.1434 2.0629 2.8827 3.0943 5.2178 3.0943z" font-size="566.097" fill="#989898"/><path style="line-height:125%;text-align:start" d="M22.9049.1634L13.62 13.5207l9.2667 13.6659h-4.1366l-7.3339-11.125-7.5145 11.125H0l9.3751-13.5025L.2168.1634h4.1185l7.2436 10.9798L18.985.1634zm23.4384 18.7112c0 1.343-.253 2.5287-.7587 3.557-.5058 1.0285-1.1862 1.8754-2.0412 2.5409-1.0116.7985-2.1225 1.3672-3.3328 1.706-1.2103.3387-3.424.5081-5.2906.5081h-9.5377V14.0652h-5.4191l1.8064-3.0308h3.6127V.1634h7.9661c1.963 0 4.1075.0726 5.083.2177.9754.1452 2.2463.4477 3.1375.9075.9875.5202 1.704 1.1887 2.1496 2.0054.4455.8167.6683 1.7937.6683 2.931 0 1.2825-.3251 2.3744-.9754 3.2758-.6503.9014-1.5174 1.6243-2.6012 2.1688v.1451c1.8184.3751 2.9138 1.1767 3.9615 2.4047 1.0477 1.228 1.5715 2.7798 1.5716 4.6552zM40.6657 6.6968c0-.6533-.1084-1.2038-.3251-1.6515-.2168-.4476-.566-.8106-1.0477-1.0889-.566-.3266-2.2655-.5293-3.0723-.608-.8069-.0786-1.8064-.118-2.9986-.118h-4.263v7.804h4.6243c1.12 0 2.011-.0575 2.6734-.1724.6623-.115 1.9518-.354 2.5179-.717.566-.3629 1.304-.8317 1.5389-1.4065.2348-.5746.3522-1.2552.3522-2.0417zm1.9564 12.323c0-1.089-.1626-1.954-.4877-2.5953-.3252-.6413-.9152-1.1857-1.7702-1.6334-.5781-.3024-1.2796-.499-2.1045-.5898-.8249-.0907-2.5028-.1361-3.683-.1361H28.959v10.0543h4.7328c1.5655 0 3.5233-.0816 4.5229-.245.9995-.1633 1.8184-.4628 2.4566-.8984.6744-.4718 1.1682-1.0102 1.4813-1.6152.313-.605.4696-1.3853.4696-2.3412zm6.9086-5.608c0 2.9401.9574 5.493 2.8722 7.6587 1.8786 2.202 4.269 3.303 7.1713 3.303 2.1074 0 4.1546-.732 6.1417-2.196 2.6614-1.972 3.992-4.7246 3.992-8.2575 0-2.807-.879-5.1966-2.6372-7.1687-1.9269-2.1657-4.4498-3.2486-7.5687-3.2486-2.6976 0-5.0278.968-6.9907 2.9038-1.987 1.9721-2.9806 4.3072-2.9806 7.0053zm-3.7934 0c0-3.666 1.427-6.8238 4.2812-9.4735C52.74 1.4217 55.7928.1633 59.1768.1633c3.4803 0 6.5752 1.0467 9.2848 3.1398 3.3117 2.5166 4.9675 6.0072 4.9675 10.4717 0 3.424-1.2584 6.5456-3.7753 9.3647-2.7216 2.9884-5.9972 4.4827-9.8267 4.4827-3.7693 0-7.0027-1.228-9.7003-3.6842-2.9263-2.7223-4.3895-6.231-4.3895-10.5262zM92.9545.1634l-9.2848 13.3573 9.2667 13.6659h-4.1366l-7.3339-11.125-7.5145 11.125h-3.9018l9.3751-13.5025L70.2664.1634h4.1185l7.2436 10.9798L89.0347.1634z" font-size="564.772" fill="#99cb33"/></g></svg>