<?xml version="1.0" encoding="UTF-8" standalone="no"?>
<!-- Generator: Adobe Illustrator 15.1.0, SVG Export Plug-In  -->

<svg
   version="1.1"
   x="0px"
   y="0px"
   width="800"
   height="230"
   viewBox="-48.423 -13.517 800 230"
   enable-background="new -48.423 -13.517 800 230"
   xml:space="preserve"
   id="svg1"
   xmlns="http://www.w3.org/2000/svg"
   xmlns:svg="http://www.w3.org/2000/svg">
<defs
   id="defs1"><style
     type="text/css"
     id="style6">
   
    .fil0 {fill:#02ABCA}
    .fil1 {fill:#8B8B8B;fill-rule:nonzero}
   
  </style></defs>
<path
   fill-rule="evenodd"
   clip-rule="evenodd"
   d="m 715.752,114.432 v -6.248 h -0.04 l -2.388,6.248 h -1.086 l -2.389,-6.248 h -0.037 v 6.248 h -1.457 v -7.996 h 2.252 l 2.192,5.667 2.176,-5.667 h 2.23 v 7.996 z m -11.472,0 h -1.552 v -6.734 h -2.444 v -1.262 h 6.442 v 1.262 h -2.446 z m -49.948,-23.077 -73.525,-0.026 -12.692,24.302 h -16.719 c 0,0 52.105,-98.644 54.18,-102.013 2.074,-3.371 8.018,-14.015 17.611,-13.497 9.591,0.518 13.601,7.819 15.417,10.93 1.813,3.111 55.615,104.58 55.615,104.58 h -26.765 z m -31.436,-58.44 c -2.324,-4.667 -7.603,-5.816 -10.455,-0.373 -1.189,2.247 -23.667,44.476 -23.667,44.476 l 57.965,0.005 z m -94.148,-18.904 0.085,100.591 h -23.91 V 14.119 L 459.535,14.048 V 0.077 L 574.395,0 574.343,14.133 Z M 467.049,185.19 c 3.217,-0.59 6.083,-0.237 6.083,-2.865 0,-2.316 -2.394,-2.747 -4.2,-2.747 -2.511,0 -4.276,1.021 -4.474,3.218 h -4.474 c 0.313,-5.221 4.749,-6.751 9.222,-6.751 3.964,0 8.124,1.61 8.124,5.888 v 10.439 c 0,1.097 0.236,1.53 1.061,1.53 0.274,0 0.628,0 1.098,-0.08 v 3.101 c -0.667,0.236 -2.078,0.51 -2.824,0.51 -1.806,0 -3.102,-0.627 -3.455,-2.471 -1.766,1.728 -4.63,2.471 -7.023,2.471 -3.651,0 -6.946,-1.961 -6.946,-5.925 -10e-4,-5.063 4.041,-5.887 7.808,-6.318 z m 0.785,8.712 c 1.961,0 5.022,-1.021 5.022,-3.848 v -3.334 c -1.373,0.903 -3.531,0.863 -5.495,1.216 -1.922,0.314 -3.648,1.021 -3.648,3.374 0,2.002 2.552,2.592 4.121,2.592 z M 448.409,191.9 v -11.97 h -3.376 v -3.336 h 3.376 v -6.084 h 4.474 v 6.084 h 4.043 v 3.336 h -4.043 v 10.832 c 0,1.845 0.156,2.786 2.159,2.786 0.627,0 1.255,0 1.884,-0.157 v 3.454 c -0.982,0.077 -1.924,0.234 -2.904,0.234 -4.672,0.001 -5.535,-1.804 -5.613,-5.179 z M 419.671,0.708 h 24.313 v 114.546 h -24.313 z m 3.23,190.33 7.182,-22.175 h 4.983 l -9.575,28.022 h -5.455 l -9.341,-28.022 h 5.103 l 7.025,22.175 z m -18.481,6.139 c -3.71,0 -6.35,-2.778 -6.35,-6.453 0,-3.883 2.933,-6.452 6.35,-6.452 3.382,0 6.315,2.569 6.315,6.452 0,3.883 -2.933,6.453 -6.315,6.453 z m 0,-11.784 c -2.794,0 -4.969,2.191 -4.969,5.331 0,2.934 1.897,5.332 4.969,5.332 2.761,0 4.935,-2.174 4.935,-5.332 0,-3.14 -2.174,-5.331 -4.935,-5.331 z m 1.001,5.884 2.002,3.14 h -1.329 l -1.846,-3.053 h -1.104 v 3.053 h -1.174 v -7.142 h 2.709 c 1.726,0 2.604,0.604 2.604,2.053 10e-4,1.292 -0.791,1.829 -1.862,1.949 z m -0.862,-3.003 h -1.415 v 2.089 h 1.312 c 0.88,0 1.656,-0.087 1.656,-1.123 0,-0.862 -0.847,-0.966 -1.553,-0.966 z m -71.81,-72.665 c -9.573,-0.518 -13.575,-7.804 -15.386,-10.908 -1.812,-3.105 -55.51,-104.378 -55.51,-104.378 h 26.714 l 44.471,82.557 c 2.319,4.658 7.59,5.805 10.437,0.371 2.328,-4.398 44.242,-82.928 44.242,-82.928 h 16.688 c 0,0 -52.007,98.453 -54.077,101.816 -2.072,3.364 -8.005,13.988 -17.579,13.47 z m -65.61,60.985 -7.889,21.388 c -1.453,3.651 -2.512,6.948 -7.183,6.948 -1.059,0 -2.079,-0.079 -3.1,-0.236 v -3.769 c 0.706,0.118 1.413,0.274 2.119,0.274 2.08,0 2.59,-1.097 3.139,-2.824 l 0.51,-1.57 -7.692,-20.211 h 4.906 l 5.298,15.149 h 0.078 l 5.142,-15.149 z M 192.749,31.606 v 52.439 c 0,19.174 -8.632,31.137 -32.558,31.137 h -51.396 v -14.178 h 44.842 c 9.177,0 14.66,-7.454 14.66,-16.958 v -52.44 c 0,-16.715 8.118,-31.136 31.88,-31.136 h 51.043 v 14.18 h -44.161 c -11.928,-0.516 -14.31,9.254 -14.31,16.956 z M 91.854,64.053 h -55 c -7.539,0 -13.11,5.736 -13.11,15.568 v 35.723 H 0 V 80.932 C 0,61.595 12.127,48.566 29.333,48.566 h 55.638 c 13.644,-0.519 16.898,-7.291 16.898,-17.124 0,-7.538 -3.771,-17.829 -16.898,-16.793 H 0 V 0.471 h 91.854 c 24.089,0 33.594,13.928 33.594,30.972 0,19.337 -9.505,32.61 -33.594,32.61 z m 121.914,113.483 c 0,3.453 -1.531,8.635 -9.537,8.595 h -7.457 v 10.755 h -4.905 v -28.022 h 12.362 c 8.006,-0.001 9.537,5.179 9.537,8.672 z m -16.994,-4.669 v 9.262 h 7.182 c 2.198,0 4.906,-1.1 4.906,-4.632 0,-3.689 -2.237,-4.63 -4.827,-4.63 z m 25.43,24.018 h -4.474 v -28.022 h 4.474 z m 11.773,-11.695 c 3.218,-0.59 6.083,-0.237 6.083,-2.865 0,-2.316 -2.394,-2.747 -4.2,-2.747 -2.512,0 -4.278,1.021 -4.474,3.218 h -4.474 c 0.313,-5.221 4.749,-6.751 9.222,-6.751 3.964,0 8.125,1.61 8.125,5.888 v 10.439 c 0,1.097 0.235,1.53 1.059,1.53 0.275,0 0.628,0 1.099,-0.08 v 3.101 c -0.667,0.236 -2.079,0.51 -2.826,0.51 -1.804,0 -3.1,-0.627 -3.453,-2.471 -1.767,1.728 -4.631,2.471 -7.024,2.471 -3.65,0 -6.947,-1.961 -6.947,-5.925 0,-5.063 4.042,-5.887 7.81,-6.318 z m 0.785,8.712 c 1.962,0 5.023,-1.021 5.023,-3.848 v -3.334 c -1.374,0.903 -3.532,0.863 -5.495,1.216 -1.923,0.314 -3.649,1.021 -3.649,3.374 0.001,2.002 2.551,2.592 4.121,2.592 z m 46.032,-0.354 c 4.317,0 5.926,-2.12 5.926,-4.238 0,-2.159 -1.177,-3.023 -2.315,-3.454 -1.962,-0.746 -4.513,-1.256 -8.359,-2.315 -4.788,-1.296 -6.2,-4.198 -6.2,-7.104 0,-5.61 5.18,-8.241 10.243,-8.241 5.848,0 10.753,3.101 10.753,8.948 h -4.906 c -0.235,-3.611 -2.669,-4.945 -6.044,-4.945 -2.276,0 -5.141,0.824 -5.141,3.65 0,1.962 1.334,3.06 3.336,3.609 0.431,0.119 6.632,1.727 8.083,2.16 3.689,1.098 5.456,4.237 5.456,7.142 0,6.279 -5.573,8.791 -11.146,8.791 -6.397,0 -11.577,-3.061 -11.695,-10.008 h 4.905 c 10e-4,4.317 3.18,6.005 7.104,6.005 z m 16.011,-23.038 h 4.475 v 6.084 h 4.041 v 3.336 h -4.041 v 10.832 c 0,1.845 0.156,2.786 2.157,2.786 0.628,0 1.257,0 1.884,-0.157 v 3.454 c -0.981,0.077 -1.923,0.234 -2.904,0.234 -4.67,0 -5.534,-1.805 -5.612,-5.18 v -11.97 h -3.375 v -3.336 h 3.375 z m 18.641,14.68 c 3.218,-0.59 6.083,-0.237 6.083,-2.865 0,-2.316 -2.394,-2.747 -4.199,-2.747 -2.512,0 -4.278,1.021 -4.475,3.218 h -4.474 c 0.314,-5.221 4.749,-6.751 9.223,-6.751 3.964,0 8.124,1.61 8.124,5.888 v 10.439 c 0,1.097 0.234,1.53 1.06,1.53 0.275,0 0.627,0 1.099,-0.08 v 3.101 c -0.667,0.236 -2.08,0.51 -2.825,0.51 -1.806,0 -3.101,-0.627 -3.455,-2.471 -1.765,1.728 -4.63,2.471 -7.024,2.471 -3.65,0 -6.946,-1.961 -6.946,-5.925 -10e-4,-5.063 4.041,-5.887 7.809,-6.318 z m 0.784,8.712 c 1.962,0 5.023,-1.021 5.023,-3.848 v -3.334 c -1.374,0.903 -3.531,0.863 -5.494,1.216 -1.922,0.314 -3.649,1.021 -3.649,3.374 0,2.002 2.55,2.592 4.12,2.592 z m 15.854,-23.392 h 4.474 v 6.084 h 4.042 v 3.336 h -4.042 v 10.832 c 0,1.845 0.157,2.786 2.158,2.786 0.628,0 1.256,0 1.885,-0.157 v 3.454 c -0.981,0.077 -1.923,0.234 -2.905,0.234 -4.67,0 -5.533,-1.805 -5.612,-5.18 v -11.97 h -3.375 v -3.336 h 3.375 z m 16.522,2.591 h -4.474 v -4.238 h 4.474 z m 0,23.784 h -4.474 v -20.291 h 4.474 z m 14.363,-20.841 c 6.515,0 10.242,4.475 10.242,10.676 0,6.238 -3.728,10.712 -10.242,10.712 -6.514,0 -10.242,-4.474 -10.242,-10.712 0,-6.201 3.728,-10.676 10.242,-10.676 z m 0,17.858 c 4.004,0 5.769,-3.651 5.769,-7.182 0,-3.494 -1.765,-7.143 -5.769,-7.143 -4.003,0 -5.769,3.648 -5.769,7.143 0.001,3.53 1.766,7.182 5.769,7.182 z m 18.405,-14.324 0.078,0.077 c 1.334,-2.236 3.65,-3.61 6.318,-3.61 4.396,0 7.182,2.354 7.182,6.908 v 13.933 h -4.473 v -12.757 c -0.079,-3.177 -1.336,-4.551 -3.964,-4.551 -2.983,0 -4.906,2.354 -4.906,5.337 v 11.971 h -4.475 v -20.291 h 4.239 v 2.983 z m 60.638,-6.477 h -4.474 v -4.238 h 4.474 z m 0,23.784 h -4.474 v -20.291 h 4.474 z"
   id="path1"
   style="display:none" />
<style
   id="style1">.st0{fill:#a09d9e}.st1{fill:#231f20}.st2{fill:#cf181f}</style><style
   id="style1-6">.st0{fill:#a09d9e}.st1{fill:#231f20}.st2{fill:#cf181f}</style><path
   d="M 556.55629,108.19109 591.368,76.859908 C 579.94538,75.110269 569.09073,72.045774 559.30794,67.807865 549.6371,62.993728 544.22977,55.345591 544.8857,47.398856 c -0.49594,-8.020067 5.41535,-15.636776 15.59808,-20.099938 13.53434,-5.280357 29.19645,-7.758148 44.92248,-7.108578 v 0 c 61.19251,0 77.12655,21.069052 87.94924,29.984897 L 726.17546,20.635609 C 720.62413,14.716157 713.609,9.4462751 705.41001,5.0459752 682.55681,-7.3272484 648.90494,-13.508619 604.45438,-13.508619 c -39.11518,0 -69.68742,5.6156191 -91.72473,16.8520984 -21.64536,10.6602486 -33.99584,27.5647316 -33.09196,45.2968926 0,30.052995 25.63685,49.026666 76.9186,59.550718 z m 168.71529,-1.58724 C 709.93746,97.661804 686.18038,90.657993 654.00032,85.59241 l -35.20368,31.6769 c 18.41374,2.41493 35.94758,7.14002 51.61766,13.91335 9.86281,4.45791 15.4941,11.94366 14.87017,19.78564 0.7359,9.32442 -5.86327,18.25074 -17.49383,23.6516 -15.17414,6.07659 -32.84398,8.94204 -50.59381,8.19296 v 0 c -50.88176,0 -74.87082,-11.04268 -99.37181,-39.79653 v 0 l -35.1157,31.60357 c 6.26324,8.44437 15.29413,15.88821 26.44475,21.79196 25.06094,13.39996 60.44058,20.09993 106.14699,20.09993 42.86675,0 76.28665,-5.92468 100.24372,-17.7793 23.86905,-11.71841 37.32342,-30.4197 35.93959,-49.93291 1.27184,-15.91967 -8.33498,-31.38358 -26.2208,-42.19573 z M 422.72467,211.58764 h -14.6702 V -8.5582834 H 422.6927 Z M -8.1024522,-9.5902581 C -3.271044,-9.7369265 1.3603879,-8.3225531 4.2960281,-5.8028566 10.367283,0.97569747 10.143313,9.4096068 3.7200989,16.041487 0.16853254,18.760243 -5.0948202,20.247964 -10.54215,20.080332 h -0.07999 v -6.741887 h 0.072 c 3.1436129,0.16239 6.2232359,-0.675762 8.2629842,-2.252533 C -0.43138636,9.1476841 0.43251043,6.8741958 0.19253937,4.5902301 0.37650973,2.7305794 -0.32740646,0.87616671 -1.8152233,-0.71631967 -3.1430606,-1.9316408 -5.318792,-2.6178799 -7.5985147,-2.5393026 c -1.9037644,-0.062874 -3.7275403,0.5238446 -4.8154083,1.54534338 -1.511814,1.76535814 -2.51969,3.69310732 -2.967635,5.69419742 l -0.919887,2.9911562 c -0.647913,3.1692616 -2.655667,6.1499426 -5.783282,8.6015376 -2.791659,1.912033 -6.703178,2.959726 -10.742684,2.870671 -4.39946,0.08906 -8.590946,-1.21532 -11.246621,-3.509763 -3.007632,-2.844479 -4.471452,-6.2599499 -4.167489,-9.7120892 -0.399953,-3.8031156 1.223849,-7.5800403 4.591437,-10.6864414 3.215606,-2.4620728 7.935027,-3.8659769 12.886421,-3.8345475 h 0.07998 v 6.6423582 h -0.03999 c -2.607678,-0.01577 -5.087376,0.7176672 -6.815163,1.99585019 -1.671795,1.71821131 -2.447699,3.74549231 -2.19173,5.77801151 -0.151984,1.650113 0.455942,3.2949855 1.743786,4.7146082 1.095865,1.058168 2.951637,1.676302 4.903398,1.623918 1.927764,0.06287 3.783535,-0.497653 4.959392,-1.498197 1.535811,-1.6553508 2.543689,-3.4940477 2.959638,-5.4113194 l 0.919886,-3.0959262 c 0.695914,-3.2792696 2.655676,-6.3909097 5.703301,-9.0310895 2.687668,-1.8753676 6.511199,-2.8759115 10.4387187,-2.7397128 z M -18.581165,184.68296 c -3.047626,2.64541 -5.007384,5.75182 -5.703301,9.03107 l -0.919888,3.09595 c -0.415949,1.91727 -1.423825,3.75598 -2.959636,5.41133 -1.175855,1.00053 -3.031628,1.56105 -4.959392,1.49818 -1.951762,0.0524 -3.807533,-0.56575 -4.903399,-1.62389 -1.287844,-1.41965 -1.895767,-3.06452 -1.743786,-4.71465 -0.24797,-2.03251 0.519935,-4.05979 2.199729,-5.778 1.719791,-1.27817 4.207486,-2.01155 6.807166,-2.00106 h 0.072 v -6.67905 h -0.07999 c -4.951393,-0.0315 -9.662814,1.37249 -12.886419,3.83454 -3.375587,3.10639 -4.999388,6.88332 -4.591437,10.68643 -0.303962,3.45216 1.167856,6.87288 4.175487,9.71211 2.655676,2.29445 6.847162,3.60407 11.246621,3.50977 4.039506,0.0837 7.951025,-0.95863 10.742685,-2.87593 3.127614,-2.4516 5.135368,-5.43227 5.78329,-8.60152 l 0.919888,-2.99115 c 0.455941,-2.00109 1.455819,-3.92886 2.967634,-5.6942 1.087866,-1.02675 2.9116435,-1.60821 4.8154078,-1.54533 2.2877207,-0.063 4.4634544,0.62336 5.7912916,1.83344 1.48781919,1.59248 2.19172965,3.44689 2.00775357,5.30656 0.23996987,2.28396 -0.62392356,4.55741 -2.47969597,6.49566 -2.0397495,1.57678 -5.1193722,2.41493 -8.262987,2.25255 h -0.072 v 6.7052 h 0.07999 c 5.4473323,0.16767 10.71068738,-1.32007 14.2542519,-4.03883 6.4232141,-6.63713 6.6471841,-15.06578 0.5759292,-21.84435 -2.9276394,-2.51969 -7.5670721,-3.93931 -12.3984803,-3.7874 -3.9515128,-0.13087 -7.7910448,0.89055 -10.4867138,2.78686 v 0.0156 z M 7.4716394,97.850387 v 7.061443 0 c -2.015752,0.67574 -4.2634775,1.00577 -6.52719893,0.95862 l -5.95127067,0.15191 c -2.4796967,-0.0839 -4.9193982,0.43479 -6.8471608,1.4563 -1.439823,1.18389 -2.127739,2.67685 -1.927765,4.18551 v 8.72727 H 7.5116341 v 6.84143 H -47.025678 v -16.17112 c 0,-0.77528 0.056,-1.54534 0.175978,-2.31539 0,0.23049 0,0.4767 0,0.73338 0.11199,-2.41492 1.191853,-4.76699 3.111618,-6.83094 l -0.447945,0.36146 c 0.383953,-0.42433 0.8159,-0.83293 1.29584,-1.21533 2.759662,-2.200145 6.935151,-3.425945 11.278619,-3.310696 5.86328,-0.261919 11.230621,2.153006 12.974406,5.830396 0.639923,-1.51915 2.071747,-2.84447 4.039505,-3.75073 2.303718,-0.864351 4.9113975,-1.30438 7.5590747,-1.283427 l 8.0870074,-0.298587 c 2.2157283,0.03144 4.3914621,-0.340497 6.2952287,-1.084357 z m -37.9313474,7.684803 c -2.239727,-0.0839 -4.415461,0.51337 -5.895277,1.62392 -1.47182,1.32534 -2.19973,2.94402 -2.039751,4.58364 v 8.65917 h 16.325999 v -8.96299 c 0.15199,-1.58724 -0.623924,-3.15355 -2.159736,-4.3846 -1.6398,-1.08434 -3.91952,-1.64486 -6.247234,-1.53485 z M -46.985681,83.523219 H 7.5516297 V 76.681804 H -46.985681 Z m 9.390847,-49.712905 h -9.390847 V 60.117819 H 7.5516297 V 33.810314 h -9.398848 V 53.292117 H -15.77351 V 35.675205 h -9.014895 V 53.292117 H -37.63483 Z m 0,108.074516 h -9.390847 v 26.3075 H 7.5516297 v -26.3075 h -9.398848 V 161.3666 H -15.77351 v -17.6169 h -9.014895 v 17.6169 H -37.63483 Z m 68.775568,69.6976 h 72.335136 l 54.95324,-49.45624 -36.17156,-32.55698 z M 348.10984,-8.5478061 h -72.3351 l -44.96248,40.4618021 36.17156,32.551736 z m -234.60322,0 H 41.163509 L 285.75747,211.55097 h 72.33514 z"
   id="path1-2"
   style="stroke-width:6.47321" /></svg>
