<?xml version="1.0" encoding="UTF-8" standalone="no"?>
<!-- Generator: Adobe Illustrator 15.1.0, SVG Export Plug-In  -->

<svg
   version="1.1"
   x="0px"
   y="0px"
   width="800"
   height="230"
   viewBox="-48.423 -13.517 800 230"
   enable-background="new -48.423 -13.517 800 230"
   xml:space="preserve"
   id="svg1"
   xmlns="http://www.w3.org/2000/svg"
   xmlns:svg="http://www.w3.org/2000/svg">
<defs
   id="defs1"><style
     type="text/css"
     id="style6">
   
    .fil0 {fill:#02ABCA}
    .fil1 {fill:#8B8B8B;fill-rule:nonzero}
   
  </style></defs>
<path
   fill-rule="evenodd"
   clip-rule="evenodd"
   d="m 715.752,114.432 v -6.248 h -0.04 l -2.388,6.248 h -1.086 l -2.389,-6.248 h -0.037 v 6.248 h -1.457 v -7.996 h 2.252 l 2.192,5.667 2.176,-5.667 h 2.23 v 7.996 z m -11.472,0 h -1.552 v -6.734 h -2.444 v -1.262 h 6.442 v 1.262 h -2.446 z m -49.948,-23.077 -73.525,-0.026 -12.692,24.302 h -16.719 c 0,0 52.105,-98.644 54.18,-102.013 2.074,-3.371 8.018,-14.015 17.611,-13.497 9.591,0.518 13.601,7.819 15.417,10.93 1.813,3.111 55.615,104.58 55.615,104.58 h -26.765 z m -31.436,-58.44 c -2.324,-4.667 -7.603,-5.816 -10.455,-0.373 -1.189,2.247 -23.667,44.476 -23.667,44.476 l 57.965,0.005 z m -94.148,-18.904 0.085,100.591 h -23.91 V 14.119 L 459.535,14.048 V 0.077 L 574.395,0 574.343,14.133 Z M 467.049,185.19 c 3.217,-0.59 6.083,-0.237 6.083,-2.865 0,-2.316 -2.394,-2.747 -4.2,-2.747 -2.511,0 -4.276,1.021 -4.474,3.218 h -4.474 c 0.313,-5.221 4.749,-6.751 9.222,-6.751 3.964,0 8.124,1.61 8.124,5.888 v 10.439 c 0,1.097 0.236,1.53 1.061,1.53 0.274,0 0.628,0 1.098,-0.08 v 3.101 c -0.667,0.236 -2.078,0.51 -2.824,0.51 -1.806,0 -3.102,-0.627 -3.455,-2.471 -1.766,1.728 -4.63,2.471 -7.023,2.471 -3.651,0 -6.946,-1.961 -6.946,-5.925 -10e-4,-5.063 4.041,-5.887 7.808,-6.318 z m 0.785,8.712 c 1.961,0 5.022,-1.021 5.022,-3.848 v -3.334 c -1.373,0.903 -3.531,0.863 -5.495,1.216 -1.922,0.314 -3.648,1.021 -3.648,3.374 0,2.002 2.552,2.592 4.121,2.592 z M 448.409,191.9 v -11.97 h -3.376 v -3.336 h 3.376 v -6.084 h 4.474 v 6.084 h 4.043 v 3.336 h -4.043 v 10.832 c 0,1.845 0.156,2.786 2.159,2.786 0.627,0 1.255,0 1.884,-0.157 v 3.454 c -0.982,0.077 -1.924,0.234 -2.904,0.234 -4.672,0.001 -5.535,-1.804 -5.613,-5.179 z M 419.671,0.708 h 24.313 v 114.546 h -24.313 z m 3.23,190.33 7.182,-22.175 h 4.983 l -9.575,28.022 h -5.455 l -9.341,-28.022 h 5.103 l 7.025,22.175 z m -18.481,6.139 c -3.71,0 -6.35,-2.778 -6.35,-6.453 0,-3.883 2.933,-6.452 6.35,-6.452 3.382,0 6.315,2.569 6.315,6.452 0,3.883 -2.933,6.453 -6.315,6.453 z m 0,-11.784 c -2.794,0 -4.969,2.191 -4.969,5.331 0,2.934 1.897,5.332 4.969,5.332 2.761,0 4.935,-2.174 4.935,-5.332 0,-3.14 -2.174,-5.331 -4.935,-5.331 z m 1.001,5.884 2.002,3.14 h -1.329 l -1.846,-3.053 h -1.104 v 3.053 h -1.174 v -7.142 h 2.709 c 1.726,0 2.604,0.604 2.604,2.053 10e-4,1.292 -0.791,1.829 -1.862,1.949 z m -0.862,-3.003 h -1.415 v 2.089 h 1.312 c 0.88,0 1.656,-0.087 1.656,-1.123 0,-0.862 -0.847,-0.966 -1.553,-0.966 z m -71.81,-72.665 c -9.573,-0.518 -13.575,-7.804 -15.386,-10.908 -1.812,-3.105 -55.51,-104.378 -55.51,-104.378 h 26.714 l 44.471,82.557 c 2.319,4.658 7.59,5.805 10.437,0.371 2.328,-4.398 44.242,-82.928 44.242,-82.928 h 16.688 c 0,0 -52.007,98.453 -54.077,101.816 -2.072,3.364 -8.005,13.988 -17.579,13.47 z m -65.61,60.985 -7.889,21.388 c -1.453,3.651 -2.512,6.948 -7.183,6.948 -1.059,0 -2.079,-0.079 -3.1,-0.236 v -3.769 c 0.706,0.118 1.413,0.274 2.119,0.274 2.08,0 2.59,-1.097 3.139,-2.824 l 0.51,-1.57 -7.692,-20.211 h 4.906 l 5.298,15.149 h 0.078 l 5.142,-15.149 z M 192.749,31.606 v 52.439 c 0,19.174 -8.632,31.137 -32.558,31.137 h -51.396 v -14.178 h 44.842 c 9.177,0 14.66,-7.454 14.66,-16.958 v -52.44 c 0,-16.715 8.118,-31.136 31.88,-31.136 h 51.043 v 14.18 h -44.161 c -11.928,-0.516 -14.31,9.254 -14.31,16.956 z M 91.854,64.053 h -55 c -7.539,0 -13.11,5.736 -13.11,15.568 v 35.723 H 0 V 80.932 C 0,61.595 12.127,48.566 29.333,48.566 h 55.638 c 13.644,-0.519 16.898,-7.291 16.898,-17.124 0,-7.538 -3.771,-17.829 -16.898,-16.793 H 0 V 0.471 h 91.854 c 24.089,0 33.594,13.928 33.594,30.972 0,19.337 -9.505,32.61 -33.594,32.61 z m 121.914,113.483 c 0,3.453 -1.531,8.635 -9.537,8.595 h -7.457 v 10.755 h -4.905 v -28.022 h 12.362 c 8.006,-0.001 9.537,5.179 9.537,8.672 z m -16.994,-4.669 v 9.262 h 7.182 c 2.198,0 4.906,-1.1 4.906,-4.632 0,-3.689 -2.237,-4.63 -4.827,-4.63 z m 25.43,24.018 h -4.474 v -28.022 h 4.474 z m 11.773,-11.695 c 3.218,-0.59 6.083,-0.237 6.083,-2.865 0,-2.316 -2.394,-2.747 -4.2,-2.747 -2.512,0 -4.278,1.021 -4.474,3.218 h -4.474 c 0.313,-5.221 4.749,-6.751 9.222,-6.751 3.964,0 8.125,1.61 8.125,5.888 v 10.439 c 0,1.097 0.235,1.53 1.059,1.53 0.275,0 0.628,0 1.099,-0.08 v 3.101 c -0.667,0.236 -2.079,0.51 -2.826,0.51 -1.804,0 -3.1,-0.627 -3.453,-2.471 -1.767,1.728 -4.631,2.471 -7.024,2.471 -3.65,0 -6.947,-1.961 -6.947,-5.925 0,-5.063 4.042,-5.887 7.81,-6.318 z m 0.785,8.712 c 1.962,0 5.023,-1.021 5.023,-3.848 v -3.334 c -1.374,0.903 -3.532,0.863 -5.495,1.216 -1.923,0.314 -3.649,1.021 -3.649,3.374 0.001,2.002 2.551,2.592 4.121,2.592 z m 46.032,-0.354 c 4.317,0 5.926,-2.12 5.926,-4.238 0,-2.159 -1.177,-3.023 -2.315,-3.454 -1.962,-0.746 -4.513,-1.256 -8.359,-2.315 -4.788,-1.296 -6.2,-4.198 -6.2,-7.104 0,-5.61 5.18,-8.241 10.243,-8.241 5.848,0 10.753,3.101 10.753,8.948 h -4.906 c -0.235,-3.611 -2.669,-4.945 -6.044,-4.945 -2.276,0 -5.141,0.824 -5.141,3.65 0,1.962 1.334,3.06 3.336,3.609 0.431,0.119 6.632,1.727 8.083,2.16 3.689,1.098 5.456,4.237 5.456,7.142 0,6.279 -5.573,8.791 -11.146,8.791 -6.397,0 -11.577,-3.061 -11.695,-10.008 h 4.905 c 10e-4,4.317 3.18,6.005 7.104,6.005 z m 16.011,-23.038 h 4.475 v 6.084 h 4.041 v 3.336 h -4.041 v 10.832 c 0,1.845 0.156,2.786 2.157,2.786 0.628,0 1.257,0 1.884,-0.157 v 3.454 c -0.981,0.077 -1.923,0.234 -2.904,0.234 -4.67,0 -5.534,-1.805 -5.612,-5.18 v -11.97 h -3.375 v -3.336 h 3.375 z m 18.641,14.68 c 3.218,-0.59 6.083,-0.237 6.083,-2.865 0,-2.316 -2.394,-2.747 -4.199,-2.747 -2.512,0 -4.278,1.021 -4.475,3.218 h -4.474 c 0.314,-5.221 4.749,-6.751 9.223,-6.751 3.964,0 8.124,1.61 8.124,5.888 v 10.439 c 0,1.097 0.234,1.53 1.06,1.53 0.275,0 0.627,0 1.099,-0.08 v 3.101 c -0.667,0.236 -2.08,0.51 -2.825,0.51 -1.806,0 -3.101,-0.627 -3.455,-2.471 -1.765,1.728 -4.63,2.471 -7.024,2.471 -3.65,0 -6.946,-1.961 -6.946,-5.925 -10e-4,-5.063 4.041,-5.887 7.809,-6.318 z m 0.784,8.712 c 1.962,0 5.023,-1.021 5.023,-3.848 v -3.334 c -1.374,0.903 -3.531,0.863 -5.494,1.216 -1.922,0.314 -3.649,1.021 -3.649,3.374 0,2.002 2.55,2.592 4.12,2.592 z m 15.854,-23.392 h 4.474 v 6.084 h 4.042 v 3.336 h -4.042 v 10.832 c 0,1.845 0.157,2.786 2.158,2.786 0.628,0 1.256,0 1.885,-0.157 v 3.454 c -0.981,0.077 -1.923,0.234 -2.905,0.234 -4.67,0 -5.533,-1.805 -5.612,-5.18 v -11.97 h -3.375 v -3.336 h 3.375 z m 16.522,2.591 h -4.474 v -4.238 h 4.474 z m 0,23.784 h -4.474 v -20.291 h 4.474 z m 14.363,-20.841 c 6.515,0 10.242,4.475 10.242,10.676 0,6.238 -3.728,10.712 -10.242,10.712 -6.514,0 -10.242,-4.474 -10.242,-10.712 0,-6.201 3.728,-10.676 10.242,-10.676 z m 0,17.858 c 4.004,0 5.769,-3.651 5.769,-7.182 0,-3.494 -1.765,-7.143 -5.769,-7.143 -4.003,0 -5.769,3.648 -5.769,7.143 0.001,3.53 1.766,7.182 5.769,7.182 z m 18.405,-14.324 0.078,0.077 c 1.334,-2.236 3.65,-3.61 6.318,-3.61 4.396,0 7.182,2.354 7.182,6.908 v 13.933 h -4.473 v -12.757 c -0.079,-3.177 -1.336,-4.551 -3.964,-4.551 -2.983,0 -4.906,2.354 -4.906,5.337 v 11.971 h -4.475 v -20.291 h 4.239 v 2.983 z m 60.638,-6.477 h -4.474 v -4.238 h 4.474 z m 0,23.784 h -4.474 v -20.291 h 4.474 z"
   id="path1"
   style="display:none" />
<style
   id="style1">.st0{fill:#a09d9e}.st1{fill:#231f20}.st2{fill:#cf181f}</style><style
   id="style1-6">.st0{fill:#a09d9e}.st1{fill:#231f20}.st2{fill:#cf181f}</style><g
   font-weight="400"
   font-family="'Bitstream Vera Sans'"
   id="g2"
   transform="matrix(4.2669693,0,0,5.454284,0.51396948,0.25628074)"><path
     style="line-height:125%;text-align:start"
     d="m 106.043,14.664 v -2.6678 h 3.0489 c 2.2141,0 3.8021,-0.4537 4.764,-1.3611 0.9619,-0.9074 1.4428,-2.0145 1.4428,-3.3212 0,-1.4277 -0.5354,-2.562 -1.6061,-3.4029 -1.0708,-0.8408 -2.4108,-1.2613 -4.02,-1.2613 -2.9884,0 -5.0574,1.4459 -6.2068,4.3375 H 100.435 C 102.1652,2.3291 105.3472,0 109.9812,0 c 2.6013,0 4.7035,0.6927 6.3066,2.078 1.6031,1.3854 2.4047,3.052 2.4047,5 0,1.5124 -0.484,2.8311 -1.4519,3.9564 -0.968,1.1252 -2.202,1.833 -3.7023,2.1233 1.6939,0.242 3.1488,0.9498 4.3647,2.1234 1.216,1.1736 1.824,2.692 1.824,4.5553 0,2.2141 -0.9045,4.0804 -2.7132,5.5988 -1.8089,1.5185 -4.2922,2.2777 -7.45,2.2777 -2.4925,0 -4.628,-0.5929 -6.4065,-1.7786 -1.7786,-1.1857 -3.4175,-4.5895 -3.7023,-7.779 h 3.1216 c 0.5388,4.163 3.2546,6.8535 6.9327,6.8535 2.3956,0 4.1167,-0.5112 5.1633,-1.5336 1.0465,-1.0224 1.5698,-2.2413 1.5698,-3.657 0,-1.5365 -0.6261,-2.7797 -1.8783,-3.7295 -1.2523,-0.9497 -3.0097,-1.4246 -5.2722,-1.4246 z m 33.7916,-7.8583 h -3.049 c -1.0284,-2.698 -2.9038,-4.0471 -5.626,-4.0471 -4.997,0 -7.5499,3.3718 -7.6587,11.466 0.7622,-1.6454 1.8783,-2.9158 3.3484,-3.8111 1.47,-0.8954 3.0217,-1.343 4.655,-1.343 2.4683,0 4.5372,0.862 6.2069,2.5861 1.6697,1.7242 2.5045,4.4654 2.5045,6.8731 0,2.4924 -0.8863,4.646 -2.6588,6.461 -1.7725,1.8148 -4.044,2.7222 -6.8147,2.7222 -3.158,0 -5.6685,-1.1857 -7.5317,-3.5571 -1.8633,-2.3714 -2.7949,-5.6019 -2.7949,-9.6914 0,-3.9926 0.8802,-7.4015 2.6406,-10.2267 C 124.8166,1.4126 127.548,0 131.2503,0 c 4.2468,0 7.1082,2.2686 8.5843,6.8057 z m -9.165,18.2394 c 1.8874,0 3.433,-0.6231 4.637,-1.8693 1.2038,-1.2463 1.8057,-2.7405 1.8057,-4.4827 0,-1.7181 -0.5868,-3.8665 -1.7604,-5.0946 -1.1736,-1.228 -2.6316,-1.842 -4.3738,-1.842 -1.8028,0 -3.3726,0.6443 -4.7096,1.9328 -1.337,1.2886 -2.0054,3.4732 -2.0054,5.2034 0,1.597 0.5989,3.0217 1.7967,4.274 1.1978,1.2522 2.7344,1.8784 4.6098,1.8784 z m 21.5528,2.6678 c -3.1942,0 -5.7077,-1.3309 -7.5407,-3.9927 -1.833,-2.6618 -2.7495,-5.9648 -2.7495,-9.9091 0,-3.8717 0.8711,-7.1415 2.6133,-9.8093 C 146.2878,1.3339 148.8165,0 152.1317,0 c 3.4603,0 6.0525,1.3914 7.7766,4.1742 1.7241,2.7828 2.5862,6.0495 2.5862,9.8002 0,3.666 -0.8863,6.8723 -2.6587,9.6188 -1.7726,2.7465 -4.3104,4.1197 -7.6134,4.1197 z m 0.0182,-2.6134 c 2.3835,0 4.1167,-1.0193 5.1996,-3.058 1.0828,-2.0387 1.6243,-4.5946 1.6243,-7.6678 0,-3.3756 -0.5536,-6.1826 -1.6606,-8.421 -1.107,-2.2383 -2.8766,-3.3574 -5.3085,-3.3574 -2.3593,0 -4.0804,1.0223 -5.1633,3.067 -1.0828,2.0448 -1.6243,4.7308 -1.6243,8.058 0,3.4604 0.5717,6.222 1.715,8.2849 1.1434,2.0629 2.8827,3.0943 5.2178,3.0943 z"
     font-size="566.097px"
     fill="#989898"
     id="path1-3" /><path
     style="line-height:125%;text-align:start"
     d="M 22.9049,0.1634 13.62,13.5207 22.8867,27.1866 H 18.7501 L 11.4162,16.0616 3.9017,27.1866 H 0 L 9.3751,13.6841 0.2168,0.1634 H 4.3353 L 11.5789,11.1432 18.985,0.1634 Z m 23.4384,18.7112 c 0,1.343 -0.253,2.5287 -0.7587,3.557 -0.5058,1.0285 -1.1862,1.8754 -2.0412,2.5409 -1.0116,0.7985 -2.1225,1.3672 -3.3328,1.706 -1.2103,0.3387 -3.424,0.5081 -5.2906,0.5081 H 25.3823 V 14.0652 h -5.4191 l 1.8064,-3.0308 h 3.6127 V 0.1634 h 7.9661 c 1.963,0 4.1075,0.0726 5.083,0.2177 0.9754,0.1452 2.2463,0.4477 3.1375,0.9075 0.9875,0.5202 1.704,1.1887 2.1496,2.0054 0.4455,0.8167 0.6683,1.7937 0.6683,2.931 0,1.2825 -0.3251,2.3744 -0.9754,3.2758 -0.6503,0.9014 -1.5174,1.6243 -2.6012,2.1688 v 0.1451 c 1.8184,0.3751 2.9138,1.1767 3.9615,2.4047 1.0477,1.228 1.5715,2.7798 1.5716,4.6552 z M 40.6657,6.6968 C 40.6657,6.0435 40.5573,5.493 40.3406,5.0453 40.1238,4.5977 39.7746,4.2347 39.2929,3.9564 38.7269,3.6298 37.0274,3.4271 36.2206,3.3484 35.4137,3.2698 34.4142,3.2304 33.222,3.2304 h -4.263 v 7.804 h 4.6243 c 1.12,0 2.011,-0.0575 2.6734,-0.1724 0.6623,-0.115 1.9518,-0.354 2.5179,-0.717 0.566,-0.3629 1.304,-0.8317 1.5389,-1.4065 0.2348,-0.5746 0.3522,-1.2552 0.3522,-2.0417 z m 1.9564,12.323 c 0,-1.089 -0.1626,-1.954 -0.4877,-2.5953 -0.3252,-0.6413 -0.9152,-1.1857 -1.7702,-1.6334 -0.5781,-0.3024 -1.2796,-0.499 -2.1045,-0.5898 -0.8249,-0.0907 -2.5028,-0.1361 -3.683,-0.1361 H 28.959 v 10.0543 h 4.7328 c 1.5655,0 3.5233,-0.0816 4.5229,-0.245 0.9995,-0.1633 1.8184,-0.4628 2.4566,-0.8984 0.6744,-0.4718 1.1682,-1.0102 1.4813,-1.6152 0.313,-0.605 0.4696,-1.3853 0.4696,-2.3412 z m 6.9086,-5.608 c 0,2.9401 0.9574,5.493 2.8722,7.6587 1.8786,2.202 4.269,3.303 7.1713,3.303 2.1074,0 4.1546,-0.732 6.1417,-2.196 2.6614,-1.972 3.992,-4.7246 3.992,-8.2575 0,-2.807 -0.879,-5.1966 -2.6372,-7.1687 -1.9269,-2.1657 -4.4498,-3.2486 -7.5687,-3.2486 -2.6976,0 -5.0278,0.968 -6.9907,2.9038 -1.987,1.9721 -2.9806,4.3072 -2.9806,7.0053 z m -3.7934,0 c 0,-3.666 1.427,-6.8238 4.2812,-9.4735 2.7215,-2.5166 5.7743,-3.775 9.1583,-3.775 3.4803,0 6.5752,1.0467 9.2848,3.1398 3.3117,2.5166 4.9675,6.0072 4.9675,10.4717 0,3.424 -1.2584,6.5456 -3.7753,9.3647 -2.7216,2.9884 -5.9972,4.4827 -9.8267,4.4827 -3.7693,0 -7.0027,-1.228 -9.7003,-3.6842 -2.9263,-2.7223 -4.3895,-6.231 -4.3895,-10.5262 z M 92.9545,0.1634 83.6697,13.5207 92.9364,27.1866 h -4.1366 l -7.3339,-11.125 -7.5145,11.125 H 70.0496 L 79.4247,13.6841 70.2664,0.1634 h 4.1185 l 7.2436,10.9798 7.4062,-10.9798 z"
     font-size="564.772px"
     fill="#99cb33"
     id="path2" /></g></svg>
