<?xml version="1.0" encoding="UTF-8" standalone="no"?>
<!-- Generator: Adobe Illustrator 15.1.0, SVG Export Plug-In  -->

<svg
   version="1.1"
   x="0px"
   y="0px"
   width="800"
   height="230"
   viewBox="-48.423 -13.517 800 230"
   enable-background="new -48.423 -13.517 800 230"
   xml:space="preserve"
   id="svg1"
   xmlns="http://www.w3.org/2000/svg"
   xmlns:svg="http://www.w3.org/2000/svg">
<defs
   id="defs1"><style
     type="text/css"
     id="style6">
   
    .fil0 {fill:#02ABCA}
    .fil1 {fill:#8B8B8B;fill-rule:nonzero}
   
  </style></defs>
<path
   fill-rule="evenodd"
   clip-rule="evenodd"
   d="m 715.752,114.432 v -6.248 h -0.04 l -2.388,6.248 h -1.086 l -2.389,-6.248 h -0.037 v 6.248 h -1.457 v -7.996 h 2.252 l 2.192,5.667 2.176,-5.667 h 2.23 v 7.996 z m -11.472,0 h -1.552 v -6.734 h -2.444 v -1.262 h 6.442 v 1.262 h -2.446 z m -49.948,-23.077 -73.525,-0.026 -12.692,24.302 h -16.719 c 0,0 52.105,-98.644 54.18,-102.013 2.074,-3.371 8.018,-14.015 17.611,-13.497 9.591,0.518 13.601,7.819 15.417,10.93 1.813,3.111 55.615,104.58 55.615,104.58 h -26.765 z m -31.436,-58.44 c -2.324,-4.667 -7.603,-5.816 -10.455,-0.373 -1.189,2.247 -23.667,44.476 -23.667,44.476 l 57.965,0.005 z m -94.148,-18.904 0.085,100.591 h -23.91 V 14.119 L 459.535,14.048 V 0.077 L 574.395,0 574.343,14.133 Z M 467.049,185.19 c 3.217,-0.59 6.083,-0.237 6.083,-2.865 0,-2.316 -2.394,-2.747 -4.2,-2.747 -2.511,0 -4.276,1.021 -4.474,3.218 h -4.474 c 0.313,-5.221 4.749,-6.751 9.222,-6.751 3.964,0 8.124,1.61 8.124,5.888 v 10.439 c 0,1.097 0.236,1.53 1.061,1.53 0.274,0 0.628,0 1.098,-0.08 v 3.101 c -0.667,0.236 -2.078,0.51 -2.824,0.51 -1.806,0 -3.102,-0.627 -3.455,-2.471 -1.766,1.728 -4.63,2.471 -7.023,2.471 -3.651,0 -6.946,-1.961 -6.946,-5.925 -10e-4,-5.063 4.041,-5.887 7.808,-6.318 z m 0.785,8.712 c 1.961,0 5.022,-1.021 5.022,-3.848 v -3.334 c -1.373,0.903 -3.531,0.863 -5.495,1.216 -1.922,0.314 -3.648,1.021 -3.648,3.374 0,2.002 2.552,2.592 4.121,2.592 z M 448.409,191.9 v -11.97 h -3.376 v -3.336 h 3.376 v -6.084 h 4.474 v 6.084 h 4.043 v 3.336 h -4.043 v 10.832 c 0,1.845 0.156,2.786 2.159,2.786 0.627,0 1.255,0 1.884,-0.157 v 3.454 c -0.982,0.077 -1.924,0.234 -2.904,0.234 -4.672,0.001 -5.535,-1.804 -5.613,-5.179 z M 419.671,0.708 h 24.313 v 114.546 h -24.313 z m 3.23,190.33 7.182,-22.175 h 4.983 l -9.575,28.022 h -5.455 l -9.341,-28.022 h 5.103 l 7.025,22.175 z m -18.481,6.139 c -3.71,0 -6.35,-2.778 -6.35,-6.453 0,-3.883 2.933,-6.452 6.35,-6.452 3.382,0 6.315,2.569 6.315,6.452 0,3.883 -2.933,6.453 -6.315,6.453 z m 0,-11.784 c -2.794,0 -4.969,2.191 -4.969,5.331 0,2.934 1.897,5.332 4.969,5.332 2.761,0 4.935,-2.174 4.935,-5.332 0,-3.14 -2.174,-5.331 -4.935,-5.331 z m 1.001,5.884 2.002,3.14 h -1.329 l -1.846,-3.053 h -1.104 v 3.053 h -1.174 v -7.142 h 2.709 c 1.726,0 2.604,0.604 2.604,2.053 10e-4,1.292 -0.791,1.829 -1.862,1.949 z m -0.862,-3.003 h -1.415 v 2.089 h 1.312 c 0.88,0 1.656,-0.087 1.656,-1.123 0,-0.862 -0.847,-0.966 -1.553,-0.966 z m -71.81,-72.665 c -9.573,-0.518 -13.575,-7.804 -15.386,-10.908 -1.812,-3.105 -55.51,-104.378 -55.51,-104.378 h 26.714 l 44.471,82.557 c 2.319,4.658 7.59,5.805 10.437,0.371 2.328,-4.398 44.242,-82.928 44.242,-82.928 h 16.688 c 0,0 -52.007,98.453 -54.077,101.816 -2.072,3.364 -8.005,13.988 -17.579,13.47 z m -65.61,60.985 -7.889,21.388 c -1.453,3.651 -2.512,6.948 -7.183,6.948 -1.059,0 -2.079,-0.079 -3.1,-0.236 v -3.769 c 0.706,0.118 1.413,0.274 2.119,0.274 2.08,0 2.59,-1.097 3.139,-2.824 l 0.51,-1.57 -7.692,-20.211 h 4.906 l 5.298,15.149 h 0.078 l 5.142,-15.149 z M 192.749,31.606 v 52.439 c 0,19.174 -8.632,31.137 -32.558,31.137 h -51.396 v -14.178 h 44.842 c 9.177,0 14.66,-7.454 14.66,-16.958 v -52.44 c 0,-16.715 8.118,-31.136 31.88,-31.136 h 51.043 v 14.18 h -44.161 c -11.928,-0.516 -14.31,9.254 -14.31,16.956 z M 91.854,64.053 h -55 c -7.539,0 -13.11,5.736 -13.11,15.568 v 35.723 H 0 V 80.932 C 0,61.595 12.127,48.566 29.333,48.566 h 55.638 c 13.644,-0.519 16.898,-7.291 16.898,-17.124 0,-7.538 -3.771,-17.829 -16.898,-16.793 H 0 V 0.471 h 91.854 c 24.089,0 33.594,13.928 33.594,30.972 0,19.337 -9.505,32.61 -33.594,32.61 z m 121.914,113.483 c 0,3.453 -1.531,8.635 -9.537,8.595 h -7.457 v 10.755 h -4.905 v -28.022 h 12.362 c 8.006,-0.001 9.537,5.179 9.537,8.672 z m -16.994,-4.669 v 9.262 h 7.182 c 2.198,0 4.906,-1.1 4.906,-4.632 0,-3.689 -2.237,-4.63 -4.827,-4.63 z m 25.43,24.018 h -4.474 v -28.022 h 4.474 z m 11.773,-11.695 c 3.218,-0.59 6.083,-0.237 6.083,-2.865 0,-2.316 -2.394,-2.747 -4.2,-2.747 -2.512,0 -4.278,1.021 -4.474,3.218 h -4.474 c 0.313,-5.221 4.749,-6.751 9.222,-6.751 3.964,0 8.125,1.61 8.125,5.888 v 10.439 c 0,1.097 0.235,1.53 1.059,1.53 0.275,0 0.628,0 1.099,-0.08 v 3.101 c -0.667,0.236 -2.079,0.51 -2.826,0.51 -1.804,0 -3.1,-0.627 -3.453,-2.471 -1.767,1.728 -4.631,2.471 -7.024,2.471 -3.65,0 -6.947,-1.961 -6.947,-5.925 0,-5.063 4.042,-5.887 7.81,-6.318 z m 0.785,8.712 c 1.962,0 5.023,-1.021 5.023,-3.848 v -3.334 c -1.374,0.903 -3.532,0.863 -5.495,1.216 -1.923,0.314 -3.649,1.021 -3.649,3.374 0.001,2.002 2.551,2.592 4.121,2.592 z m 46.032,-0.354 c 4.317,0 5.926,-2.12 5.926,-4.238 0,-2.159 -1.177,-3.023 -2.315,-3.454 -1.962,-0.746 -4.513,-1.256 -8.359,-2.315 -4.788,-1.296 -6.2,-4.198 -6.2,-7.104 0,-5.61 5.18,-8.241 10.243,-8.241 5.848,0 10.753,3.101 10.753,8.948 h -4.906 c -0.235,-3.611 -2.669,-4.945 -6.044,-4.945 -2.276,0 -5.141,0.824 -5.141,3.65 0,1.962 1.334,3.06 3.336,3.609 0.431,0.119 6.632,1.727 8.083,2.16 3.689,1.098 5.456,4.237 5.456,7.142 0,6.279 -5.573,8.791 -11.146,8.791 -6.397,0 -11.577,-3.061 -11.695,-10.008 h 4.905 c 10e-4,4.317 3.18,6.005 7.104,6.005 z m 16.011,-23.038 h 4.475 v 6.084 h 4.041 v 3.336 h -4.041 v 10.832 c 0,1.845 0.156,2.786 2.157,2.786 0.628,0 1.257,0 1.884,-0.157 v 3.454 c -0.981,0.077 -1.923,0.234 -2.904,0.234 -4.67,0 -5.534,-1.805 -5.612,-5.18 v -11.97 h -3.375 v -3.336 h 3.375 z m 18.641,14.68 c 3.218,-0.59 6.083,-0.237 6.083,-2.865 0,-2.316 -2.394,-2.747 -4.199,-2.747 -2.512,0 -4.278,1.021 -4.475,3.218 h -4.474 c 0.314,-5.221 4.749,-6.751 9.223,-6.751 3.964,0 8.124,1.61 8.124,5.888 v 10.439 c 0,1.097 0.234,1.53 1.06,1.53 0.275,0 0.627,0 1.099,-0.08 v 3.101 c -0.667,0.236 -2.08,0.51 -2.825,0.51 -1.806,0 -3.101,-0.627 -3.455,-2.471 -1.765,1.728 -4.63,2.471 -7.024,2.471 -3.65,0 -6.946,-1.961 -6.946,-5.925 -10e-4,-5.063 4.041,-5.887 7.809,-6.318 z m 0.784,8.712 c 1.962,0 5.023,-1.021 5.023,-3.848 v -3.334 c -1.374,0.903 -3.531,0.863 -5.494,1.216 -1.922,0.314 -3.649,1.021 -3.649,3.374 0,2.002 2.55,2.592 4.12,2.592 z m 15.854,-23.392 h 4.474 v 6.084 h 4.042 v 3.336 h -4.042 v 10.832 c 0,1.845 0.157,2.786 2.158,2.786 0.628,0 1.256,0 1.885,-0.157 v 3.454 c -0.981,0.077 -1.923,0.234 -2.905,0.234 -4.67,0 -5.533,-1.805 -5.612,-5.18 v -11.97 h -3.375 v -3.336 h 3.375 z m 16.522,2.591 h -4.474 v -4.238 h 4.474 z m 0,23.784 h -4.474 v -20.291 h 4.474 z m 14.363,-20.841 c 6.515,0 10.242,4.475 10.242,10.676 0,6.238 -3.728,10.712 -10.242,10.712 -6.514,0 -10.242,-4.474 -10.242,-10.712 0,-6.201 3.728,-10.676 10.242,-10.676 z m 0,17.858 c 4.004,0 5.769,-3.651 5.769,-7.182 0,-3.494 -1.765,-7.143 -5.769,-7.143 -4.003,0 -5.769,3.648 -5.769,7.143 0.001,3.53 1.766,7.182 5.769,7.182 z m 18.405,-14.324 0.078,0.077 c 1.334,-2.236 3.65,-3.61 6.318,-3.61 4.396,0 7.182,2.354 7.182,6.908 v 13.933 h -4.473 v -12.757 c -0.079,-3.177 -1.336,-4.551 -3.964,-4.551 -2.983,0 -4.906,2.354 -4.906,5.337 v 11.971 h -4.475 v -20.291 h 4.239 v 2.983 z m 60.638,-6.477 h -4.474 v -4.238 h 4.474 z m 0,23.784 h -4.474 v -20.291 h 4.474 z"
   id="path1"
   style="display:none" />
<style
   id="style1">.st0{fill:#a09d9e}.st1{fill:#231f20}.st2{fill:#cf181f}</style><style
   id="style1-6">.st0{fill:#a09d9e}.st1{fill:#231f20}.st2{fill:#cf181f}</style><path
   d="M 523.424,108.25197 553.56806,80.079936 C 543.67702,78.506713 534.27779,75.751213 525.80671,71.940615 517.43257,67.61189 512.75026,60.73492 513.31824,53.58946 c -0.42944,-7.2114 4.68925,-14.060111 13.50665,-18.073249 11.71962,-4.747936 25.2817,-6.975889 38.89914,-6.391816 v 0 c 52.98764,0 66.7852,18.944646 76.15675,26.961501 L 670.30015,29.524767 C 665.49316,24.202178 659.41863,19.463661 652.31899,15.507046 632.53001,4.3814224 603.39028,-1.1766768 564.89979,-1.1766768 c -33.87051,0 -60.34354,5.0493927 -79.42602,15.1528908 -18.74309,9.585369 -29.43757,24.785362 -28.65489,40.729578 0,27.022733 22.19939,44.083277 66.60512,53.546178 z m 146.09346,-1.4272 c -13.27808,-8.040407 -33.84974,-14.33802 -61.715,-18.892837 l -30.48348,28.482907 c 15.94478,2.17143 31.12763,6.42009 44.69663,12.51045 8.54037,4.00842 13.4166,10.73937 12.87633,17.79064 0.63723,8.38424 -5.07711,16.41051 -15.14821,21.26679 -13.13955,5.46389 -28.44017,8.04041 -43.81004,7.36686 v 0 c -44.05939,0 -64.83193,-9.92924 -86.04775,-35.78381 v 0 l -30.40728,28.41695 c 5.42344,7.59292 13.24344,14.2862 22.89896,19.59466 21.70069,12.04884 52.33653,18.07325 91.91449,18.07325 37.11904,0 66.05791,-5.32729 86.80274,-15.9866 20.66863,-10.53684 32.31899,-27.35246 31.12071,-44.89815 1.10131,-14.31448 -7.2174,-28.21915 -22.70504,-37.94111 z M 407.53692,201.22299 H 394.83375 V 3.2745133 h 12.67548 z M 34.47636,2.3465934 C 38.659959,2.2147137 42.670395,3.4864749 45.212416,5.7521088 50.469619,11.847177 50.27568,19.43069 44.713709,25.393873 41.638347,27.838496 37.08072,29.176208 32.363783,29.02548 h -0.06926 v -6.062099 h 0.06234 c 2.722108,0.146017 5.388806,-0.607624 7.155059,-2.025409 1.606945,-1.742795 2.355008,-3.787046 2.147213,-5.840718 0.159303,-1.672141 -0.45023,-3.339572 -1.738556,-4.771487 -1.149797,-1.0927795 -3.0338,-1.7098247 -5.007851,-1.6391704 -1.648502,-0.056534 -3.227741,0.471025 -4.169744,1.3895254 -1.309106,1.587356 -2.181843,3.320729 -2.569726,5.120048 l -0.796546,2.689556 c -0.561039,2.849703 -2.299587,5.52984 -5.007843,7.734239 -2.417344,1.719242 -5.804396,2.661295 -9.302273,2.581219 C 9.2570281,28.281261 5.6275488,27.108406 3.3279541,25.045314 0.72359508,22.487645 -0.54395144,19.416558 -0.28074474,16.3125 -0.62707008,12.892855 0.77900695,9.49676 3.6950583,6.7035792 6.479507,4.4897588 10.566134,3.2274112 14.85363,3.2556716 h 0.06926 v 5.972605 h -0.03463 c -2.258033,-0.014179 -4.405245,0.6453044 -5.9013651,1.7946074 -1.4476363,1.544963 -2.119505,3.367832 -1.8978575,5.195411 -0.1316054,1.483731 0.3948094,2.96275 1.5099745,4.239231 0.9489279,0.951472 2.5558731,1.50728 4.2459361,1.460178 1.669284,0.05653 3.276228,-0.447474 4.294422,-1.347133 1.329886,-1.488441 2.202624,-3.141741 2.562801,-4.865693 l 0.796545,-2.783762 C 21.10132,9.9724972 22.798311,7.1746059 25.437302,4.800637 27.7646,3.1143639 31.075461,2.2147054 34.476367,2.3371712 Z M 25.402664,177.03112 c -2.638992,2.37867 -4.33598,5.17186 -4.938586,8.12047 l -0.796547,2.78377 c -0.360177,1.72395 -1.232914,3.37727 -2.562799,4.8657 -1.018193,0.89965 -2.625138,1.40366 -4.294423,1.34713 -1.690063,0.0471 -3.2970065,-0.50871 -4.2459361,-1.46016 -1.1151651,-1.27651 -1.641577,-2.75552 -1.5099745,-4.23927 -0.2147211,-1.82756 0.4502213,-3.65044 1.9047838,-5.1954 1.4891958,-1.14929 3.6433338,-1.80873 5.8944408,-1.79929 h 0.06234 v -6.0056 h -0.06926 c -4.287495,-0.0283 -8.3671954,1.2341 -11.1585703,3.4479 -2.92297777,2.79318 -4.32905477,6.18928 -3.97580315,9.60892 -0.26320669,3.10407 1.0112661,6.17988 3.61562505,8.73283 2.2995948,2.0631 5.9290741,3.24067 9.7386414,3.15588 3.497877,0.0753 6.884929,-0.86198 9.302274,-2.58595 2.708255,-2.2044 4.446803,-4.88453 5.007849,-7.73423 l 0.796547,-2.68955 c 0.394808,-1.79932 1.260619,-3.53271 2.569725,-5.12005 0.942003,-0.92321 2.521242,-1.44605 4.169745,-1.38952 1.980976,-0.0566 3.864981,0.56052 5.014778,1.64858 1.288328,1.43192 1.897856,3.09934 1.738548,4.77149 0.207794,2.05368 -0.540266,4.0979 -2.147211,5.84071 -1.766254,1.41779 -4.432952,2.17143 -7.155062,2.02542 h -0.06234 v 6.02911 h 0.06926 c 4.716938,0.15076 9.274567,-1.18696 12.343,-3.63159 5.561971,-5.9679 5.75591,-13.54669 0.498707,-19.64177 -2.535093,-2.26563 -6.552457,-3.54211 -10.736056,-3.40552 -3.421683,-0.11767 -6.746398,0.80076 -9.080624,2.50586 v 0.0141 z M 47.962232,98.953931 v 6.349429 0 c -1.745474,0.60761 -3.691818,0.90436 -5.652013,0.86197 l -5.153307,0.13659 c -2.147212,-0.0754 -4.259791,0.39096 -5.929074,1.30945 -1.246767,1.06452 -1.842445,2.40695 -1.669284,3.76349 v 7.84729 h 18.43831 v 6.1516 H 0.77207452 v -14.54056 c 0,-0.69712 0.0484871,-1.38953 0.15238146,-2.08193 0,0.20725 0,0.42863 0,0.65943 0.0969742,-2.17143 1.03204652,-4.28633 2.69440402,-6.14217 l -0.3878831,0.32501 c 0.3324712,-0.38154 0.7065016,-0.74894 1.1220898,-1.09279 2.3896379,-1.9783 6.0052643,-3.080501 9.7663473,-2.976874 5.077115,-0.23551 9.724788,1.935914 11.234762,5.242514 0.55412,-1.36597 1.79396,-2.55766 3.497876,-3.37254 1.994828,-0.7772 4.252863,-1.17286 6.545531,-1.15402 l 7.002678,-0.26848 c 1.918637,0.02826 3.802642,-0.306165 5.451146,-0.975021 z M 15.11683,105.86387 c -1.939417,-0.0754 -3.823422,0.46161 -5.104821,1.46018 -1.2744742,1.1917 -1.9047836,2.64717 -1.7662548,4.12147 v 7.78606 H 22.382715 v -8.05925 c 0.131612,-1.4272 -0.540266,-2.83557 -1.870151,-3.94249 -1.419931,-0.97501 -3.39398,-1.47901 -5.409587,-1.3801 z M 0.8067075,86.071381 H 48.031497 V 79.919789 H 0.8067075 Z M 8.9384033,41.371059 H 0.8067075 V 65.025961 H 48.031497 V 41.371059 H 39.892874 V 58.888498 H 27.83386 V 43.047911 H 20.027709 V 58.888498 H 8.9037703 Z m 0,97.177291 H 0.8067075 v 23.6549 H 48.031497 v -23.6549 h -8.138623 v 17.51742 H 27.83386 v -15.84058 h -7.806151 v 15.84058 H 8.9037703 Z M 68.492342,201.2183 h 62.636228 l 47.58496,-44.46954 -31.32158,-29.27423 z M 342.92667,3.2839343 h -62.6362 l -38.93379,36.3820127 31.32158,29.269524 z m -203.14693,0 H 77.136597 L 288.93469,201.19001 h 62.63623 z"
   id="path1-2"
   style="stroke-width:5.71187" /></svg>
